Recursive-Mono Linear Bold Italic.ufo
<glyph name="comma" format="2">
  <advance width="600.0"/>
  <unicode hex="002C"/>
  <outline>
    <contour>
      <point x="178.1509433962264" y="-200.0" type="curve" smooth="yes"/>
      <point x="183.1509433962264" y="-200.0"/>
      <point x="186.30188679245282" y="-199.0"/>
      <point x="190.1509433962264" y="-192.0" type="curve" smooth="yes"/>
      <point x="257.5471698113207" y="-67.8679245283019"/>
      <point x="335.98113207547163" y="75.39622641509432"/>
      <point x="392.3396226415094" y="177.60377358490564" type="curve" smooth="yes"/>
      <point x="397.3396226415094" y="186.60377358490564"/>
      <point x="395.49056603773585" y="192.45283018867923"/>
      <point x="387.49056603773585" y="192.45283018867923" type="curve" smooth="yes"/>
      <point x="321.9245283018868" y="192.45283018867923"/>
      <point x="283.2452830188679" y="192.45283018867923"/>
      <point x="206.58490566037736" y="192.45283018867923" type="curve"/>
      <point x="154.18867924528303" y="62.16981132075471"/>
      <point x="100.79245283018867" y="-69.56603773584905"/>
      <point x="49.24528301886794" y="-200.0" type="curve"/>
      <point x="83.32075471698114" y="-200.0"/>
      <point x="121.7924528301887" y="-200.0"/>
    </contour>
  </outline>
</glyph>
<glyph name="A" format="2">
  <advance width="600.0"/>
  <unicode hex="0041"/>
  <anchor x="500.9622641509433" y="0.0" name="ogonek"/>
  <anchor x="410.1316765893208" y="711.0" name="top"/>
  <anchor x="407.34329011659435" y="700.0" name="ring"/>
  <anchor x="232.05181712975286" y="-1.0" name="bottom"/>
  <anchor x="412.60377358490564" y="730.0" name="hook"/>
  <outline>
    <contour>
      <point x="150.7924528301887" y="281.24528301886795" type="line"/>
      <point x="122.35849056603774" y="177.62264150943398" type="line" smooth="yes"/>
      <point x="121.20754716981133" y="172.62264150943398"/>
      <point x="123.20754716981132" y="166.62264150943398"/>
      <point x="130.35849056603774" y="166.62264150943398" type="curve"/>
      <point x="417.15094339622647" y="166.62264150943398" type="line"/>
      <point x="416.69811320754724" y="293.79245283018867" type="line"/>
      <point x="384.8679245283019" y="281.24528301886795" type="line"/>
      <point x="365.8301886792453" y="281.24528301886795"/>
      <point x="345.88679245283026" y="281.24528301886795"/>
      <point x="326.8490566037736" y="281.24528301886795" type="curve"/>
    </contour>
    <contour>
      <point x="105.69811320754717" y="0.0" type="curve"/>
      <point x="234.96226415094335" y="292.0754716981131"/>
      <point x="318.0943396226415" y="459.8867924528302"/>
      <point x="384.811320754717" y="626.0" type="curve"/>
      <point x="347.377358490566" y="601.3207547169811" type="line"/>
      <point x="423.75471698113205" y="601.3207547169811" type="line"/>
      <point x="398.4150943396226" y="627.6981132075472" type="line"/>
      <point x="385.5471698113207" y="440.4150943396227"/>
      <point x="382.07547169811323" y="271.39622641509425"/>
      <point x="367.3018867924528" y="12.69811320754717" type="curve" smooth="yes"/>
      <point x="367.45283018867923" y="3.8490566037735845"/>
      <point x="372.0" y="0.0"/>
      <point x="379.1509433962264" y="0.0" type="curve" smooth="yes"/>
      <point x="420.1698113207547" y="0.0"/>
      <point x="458.94339622641513" y="0.0"/>
      <point x="499.9622641509433" y="0.0" type="curve"/>
      <point x="502.2075471698113" y="47.32075471698113"/>
      <point x="504.60377358490564" y="93.0943396226415"/>
      <point x="506.0" y="137.01886792452828" type="curve" smooth="yes"/>
      <point x="513.7735849056604" y="349.7169811320755"/>
      <point x="521.5471698113207" y="537.9433962264151"/>
      <point x="525.0754716981132" y="690.0566037735848" type="curve"/>
      <point x="524.9245283018868" y="698.5094339622642"/>
      <point x="522.7735849056604" y="701.5094339622641"/>
      <point x="515.4716981132075" y="701.5094339622641" type="curve"/>
      <point x="439.92452830188677" y="701.5094339622641"/>
      <point x="364.5283018867924" y="701.5094339622641"/>
      <point x="288.98113207547163" y="701.5094339622641" type="curve"/>
      <point x="230.00000000000003" y="578.188679245283"/>
      <point x="25.13207547169813" y="124.58490566037737"/>
      <point x="-27.905660377358494" y="14.849056603773585" type="curve" smooth="yes"/>
      <point x="-31.905660377358494" y="5.150943396226415"/>
      <point x="-27.358490566037737" y="0.0"/>
      <point x="-19.056603773584904" y="0.0" type="curve" smooth="yes"/>
      <point x="20.264150943396228" y="0.0"/>
      <point x="62.98113207547168" y="0.0"/>
    </contour>
  </outline>
</glyph>
<glyph name="B" format="2">
  <advance width="600.0"/>
  <unicode hex="0042"/>
  <outline>
    <contour>
      <point x="258.66037735849056" y="0.0" type="curve"/>
      <point x="397.2830188679245" y="0.0"/>
      <point x="483.2830188679245" y="46.54716981132076"/>
      <point x="511.73584905660374" y="158.35849056603774" type="curve" smooth="yes"/>
      <point x="520.4339622641509" y="192.30188679245285" type="line" smooth="yes"/>
      <point x="537.5849056603773" y="259.35849056603774"/>
      <point x="512.0377358490566" y="320.60377358490564"/>
      <point x="440.7358490566038" y="340.35849056603774" type="curve"/>
      <point x="440.7358490566038" y="375.09433962264154" type="line"/>
      <point x="191.92452830188677" y="375.09433962264154" type="line"/>
      <point x="168.188679245283" y="306.58490566037733" type="line"/>
      <point x="316.2830188679245" y="306.58490566037733" type="line"/>
      <point x="385.37735849056605" y="306.58490566037733"/>
      <point x="404.37735849056605" y="276.7358490566038"/>
      <point x="390.7735849056604" y="222.47169811320754" type="curve" smooth="yes"/>
      <point x="381.9245283018868" y="188.92452830188677" type="line" smooth="yes"/>
      <point x="369.26415094339626" y="140.2830188679245"/>
      <point x="336.7358490566038" y="117.1698113207547"/>
      <point x="279.22641509433964" y="117.1698113207547" type="curve" smooth="yes"/>
      <point x="244.54716981132077" y="117.1698113207547"/>
      <point x="213.88679245283018" y="117.1698113207547"/>
      <point x="179.20754716981128" y="117.1698113207547" type="curve"/>
      <point x="201.86792452830187" y="211.35849056603774"/>
      <point x="237.2641509433962" y="349.84905660377353"/>
      <point x="270.2641509433962" y="480.5471698113207" type="curve" smooth="yes"/>
      <point x="280.0754716981132" y="520.9433962264151"/>
      <point x="291.58490566037733" y="567.132075471698"/>
      <point x="300.5471698113207" y="604.8301886792453" type="curve"/>
      <point x="311.0943396226415" y="622.0754716981132" type="line"/>
      <point x="166.24528301886795" y="619.5283018867925" type="line"/>
      <point x="116.03773584905662" y="419.0"/>
      <point x="64.28301886792454" y="212.37735849056605"/>
      <point x="14.075471698113216" y="11.849056603773585" type="curve"/>
      <point x="12.9245283018868" y="4.849056603773585"/>
      <point x="15.075471698113216" y="0.0"/>
      <point x="22.075471698113216" y="0.0" type="curve" smooth="yes"/>
      <point x="42.73584905660378" y="0.0"/>
      <point x="179.56603773584905" y="0.0"/>
    </contour>
    <contour>
      <point x="137.30188679245282" y="700.0" type="curve"/>
      <point x="130.0566037735849" y="670.1698113207548"/>
      <point x="121.26415094339623" y="633.0"/>
      <point x="111.47169811320755" y="593.8301886792453" type="curve" smooth="yes"/>
      <point x="109.47169811320755" y="588.377358490566"/>
      <point x="112.47169811320755" y="582.8301886792453"/>
      <point x="119.47169811320755" y="582.8301886792453" type="curve" smooth="yes"/>
      <point x="209.47169811320757" y="582.8301886792453"/>
      <point x="298.4716981132076" y="582.8301886792453"/>
      <point x="388.4716981132076" y="582.8301886792453" type="curve" smooth="yes"/>
      <point x="414.3018867924528" y="582.8301886792453"/>
      <point x="431.1698113207547" y="577.7735849056604"/>
      <point x="442.52830188679246" y="566.4150943396227" type="curve" smooth="yes"/>
      <point x="455.0377358490566" y="554.0566037735849"/>
      <point x="457.8867924528302" y="533.245283018868"/>
      <point x="451.4339622641509" y="507.9811320754717" type="curve" smooth="yes"/>
      <point x="442.7358490566038" y="472.33962264150944" type="line" smooth="yes"/>
      <point x="431.22641509433964" y="425.75471698113205"/>
      <point x="400.1132075471698" y="400.0754716981132"/>
      <point x="337.9622641509434" y="400.0754716981132" type="curve" smooth="yes"/>
      <point x="292.5094339622641" y="400.0754716981132"/>
      <point x="238.71698113207546" y="400.0754716981132"/>
      <point x="193.2641509433962" y="400.0754716981132" type="curve"/>
      <point x="174.77358490566036" y="337.3018867924528" type="line" smooth="yes"/>
      <point x="197.81132075471697" y="350.188679245283" type="line"/>
      <point x="246.50943396226413" y="350.188679245283"/>
      <point x="308.64150943396226" y="350.188679245283"/>
      <point x="357.33962264150944" y="350.188679245283" type="curve" smooth="yes"/>
      <point x="478.7358490566038" y="350.188679245283"/>
      <point x="562.377358490566" y="396.79245283018867"/>
      <point x="585.433962264151" y="487.7735849056604" type="curve" smooth="yes"/>
      <point x="592.2830188679246" y="515.3207547169811" type="line" smooth="yes"/>
      <point x="613.7358490566038" y="601.433962264151"/>
      <point x="579.7735849056604" y="700.0"/>
      <point x="407.11320754716985" y="700.0" type="curve" smooth="yes"/>
      <point x="317.50943396226415" y="700.0"/>
      <point x="226.9056603773585" y="700.0"/>
    </contour>
  </outline>
</glyph>
<glyph name="M" format="2">
  <advance width="600.0"/>
  <unicode hex="004D"/>
  <anchor x="228.0566037735849" y="0.0" name="bottom"/>
  <outline>
    <contour>
      <point x="120.98113207547168" y="0.0" type="curve"/>
      <point x="135.58490566037733" y="56.86792452830189"/>
      <point x="149.3396226415094" y="114.58490566037737"/>
      <point x="163.94339622641508" y="171.6037735849057" type="curve"/>
      <point x="186.16981132075472" y="261.56603773584914"/>
      <point x="192.67924528301887" y="305.92452830188677"/>
      <point x="203.54716981132074" y="498.6415094339623" type="curve"/>
      <point x="178.39622641509436" y="470.3018867924529" type="line"/>
      <point x="246.4716981132075" y="470.3018867924529" type="line"/>
      <point x="215.64150943396228" y="497.09433962264154" type="line"/>
      <point x="227.8490566037736" y="374.88679245283015"/>
      <point x="240.60377358490564" y="258.26415094339626"/>
      <point x="252.05660377358492" y="146.9245283018868" type="curve" smooth="yes"/>
      <point x="253.20754716981133" y="139.0188679245283"/>
      <point x="258.0566037735849" y="138.0188679245283"/>
      <point x="262.811320754717" y="138.0188679245283" type="curve" smooth="yes"/>
      <point x="268.0188679245283" y="138.0188679245283"/>
      <point x="272.52830188679246" y="138.0188679245283"/>
      <point x="277.73584905660374" y="138.0188679245283" type="curve"/>
      <point x="351.90566037735846" y="258.24528301886795"/>
      <point x="418.0" y="370.8867924528302"/>
      <point x="493.6792452830189" y="495.73584905660374" type="curve"/>
      <point x="449.7924528301887" y="470.3018867924529" type="line"/>
      <point x="520.5283018867923" y="470.3018867924529" type="line"/>
      <point x="509.07547169811323" y="498.0377358490566" type="line"/>
      <point x="426.811320754717" y="308.2830188679245"/>
      <point x="407.11320754716985" y="257.5660377358491"/>
      <point x="386.1886792452831" y="173.11320754716985" type="curve"/>
      <point x="372.433962264151" y="118.9433962264151"/>
      <point x="359.5283018867925" y="65.47169811320757"/>
      <point x="345.7735849056604" y="11.30188679245283" type="curve" smooth="yes"/>
      <point x="344.622641509434" y="5.0"/>
      <point x="347.3207547169812" y="0.0"/>
      <point x="353.622641509434" y="0.0" type="curve"/>
      <point x="395.49056603773585" y="0.0"/>
      <point x="437.5094339622642" y="0.0"/>
      <point x="477.6792452830189" y="0.0" type="curve"/>
      <point x="486.6792452830189" y="33.15094339622642"/>
      <point x="494.6792452830189" y="66.30188679245283"/>
      <point x="502.8301886792453" y="99.45283018867924" type="curve"/>
      <point x="551.8301886792453" y="296.1509433962264"/>
      <point x="608.3207547169811" y="520.1698113207548"/>
      <point x="650.5283018867925" y="689.0" type="curve" smooth="yes"/>
      <point x="651.6792452830189" y="695.1509433962265"/>
      <point x="648.8301886792453" y="700.0"/>
      <point x="642.5283018867925" y="700.0" type="curve" smooth="yes"/>
      <point x="594.811320754717" y="700.0"/>
      <point x="546.0377358490566" y="700.0"/>
      <point x="498.3207547169811" y="700.0" type="curve"/>
      <point x="434.5471698113207" y="574.9811320754717"/>
      <point x="372.5660377358491" y="449.6037735849056"/>
      <point x="306.52830188679246" y="320.811320754717" type="curve"/>
      <point x="353.2641509433962" y="362.0" type="line"/>
      <point x="284.79245283018867" y="362.0" type="line"/>
      <point x="312.2830188679245" y="320.35849056603774" type="line"/>
      <point x="308.4150943396226" y="447.05660377358487"/>
      <point x="303.60377358490564" y="567.2264150943397"/>
      <point x="300.6415094339622" y="689.5471698113208" type="curve" smooth="yes"/>
      <point x="300.4905660377358" y="696.3018867924529"/>
      <point x="296.64150943396226" y="700.0"/>
      <point x="289.4905660377358" y="700.0" type="curve" smooth="yes"/>
      <point x="247.16981132075472" y="700.0"/>
      <point x="204.09433962264148" y="700.0"/>
      <point x="161.77358490566039" y="700.0" type="curve"/>
      <point x="152.9245283018868" y="667.0"/>
      <point x="144.77358490566039" y="633.0"/>
      <point x="136.77358490566039" y="600.0" type="curve"/>
      <point x="87.77358490566039" y="404.0"/>
      <point x="37.9245283018868" y="207.0"/>
      <point x="-11.075471698113201" y="11.0" type="curve" smooth="yes"/>
      <point x="-12.19480293056603" y="5.09483649130566"/>
      <point x="-9.377358490566031" y="0.0"/>
      <point x="-3.0754716981132" y="0.0" type="curve"/>
      <point x="37.943396226415096" y="0.0"/>
      <point x="79.35849056603772" y="0.0"/>
    </contour>
  </outline>
</glyph>
<glyph name="Q" format="2">
  <advance width="600.0"/>
  <unicode hex="0051"/>
  <outline>
    <contour>
      <point x="402.4905660377359" y="87.58490566037734" type="curve"/>
      <point x="278.7358490566038" y="57.981132075471685" type="line"/>
      <point x="293.0377358490566" y="11.396226415094329"/>
      <point x="308.8867924528302" y="-35.8867924528302"/>
      <point x="323.188679245283" y="-82.47169811320755" type="curve" smooth="yes"/>
      <point x="338.188679245283" y="-134.0"/>
      <point x="364.28301886792457" y="-149.69811320754718"/>
      <point x="431.4528301886793" y="-149.69811320754718" type="curve" smooth="yes"/>
      <point x="438.45283018867923" y="-149.69811320754718"/>
      <point x="447.8490566037736" y="-149.69811320754718"/>
      <point x="452.3018867924529" y="-149.69811320754718" type="curve" smooth="yes"/>
      <point x="459.3018867924529" y="-149.69811320754718"/>
      <point x="464.3018867924529" y="-145.69811320754718"/>
      <point x="466.3018867924529" y="-138.69811320754718" type="curve" smooth="yes"/>
      <point x="475.245283018868" y="-100.37735849056605"/>
      <point x="485.88679245283026" y="-60.207547169811335"/>
      <point x="495.67924528301893" y="-21.886792452830207" type="curve"/>
      <point x="477.188679245283" y="-21.886792452830207" type="line"/>
      <point x="471.81132075471703" y="-21.886792452830207"/>
      <point x="467.98113207547163" y="-21.886792452830207"/>
      <point x="461.62264150943395" y="-21.886792452830207" type="curve" smooth="yes"/>
      <point x="447.0188679245283" y="-21.886792452830207"/>
      <point x="440.01886792452825" y="-19.433962264150964"/>
      <point x="434.566037735849" y="-2.5849056603773786" type="curve"/>
      <point x="424.50943396226415" y="26.566037735849044"/>
      <point x="412.9881929426868" y="57.41803611901885"/>
    </contour>
    <component base="O"/>
  </outline>
</glyph>
<glyph name="grave" format="2">
  <advance width="600.0"/>
  <unicode hex="0060"/>
  <outline>
    <contour>
      <point x="414.90566037735846" y="745.4716981132076" type="curve"/>
      <point x="349.35849056603774" y="745.4716981132076"/>
      <point x="322.0188679245283" y="745.4716981132076"/>
      <point x="255.60377358490564" y="745.4716981132076" type="curve" smooth="yes"/>
      <point x="247.60377358490567" y="745.4716981132076"/>
      <point x="242.30188679245282" y="737.0754716981132"/>
      <point x="244.1509433962264" y="729.9245283018868" type="curve" smooth="yes"/>
      <point x="260.45283018867923" y="664.0943396226415"/>
      <point x="290.188679245283" y="544.622641509434"/>
      <point x="314.8301886792453" y="462.811320754717" type="curve" smooth="yes"/>
      <point x="315.9811320754717" y="457.50943396226415"/>
      <point x="322.52830188679246" y="455.66037735849056"/>
      <point x="332.622641509434" y="455.66037735849056" type="curve" smooth="yes"/>
      <point x="378.79245283018867" y="455.66037735849056"/>
      <point x="406.07547169811323" y="455.66037735849056"/>
      <point x="447.79245283018867" y="455.66037735849056" type="curve"/>
      <point x="438.09433962264154" y="541.9245283018868"/>
      <point x="424.45283018867923" y="657.3584905660377"/>
    </contour>
  </outline>
</glyph>
<glyph name="s" format="2">
  <advance width="600.0"/>
  <unicode hex="0073"/>
  <outline>
    <contour>
      <point x="379.5849056603774" y="546.7358490566038" type="curve" smooth="yes"/>
      <point x="232.60377358490567" y="546.7358490566038"/>
      <point x="142.84997420712452" y="497.61860965556224"/>
      <point x="115.52830188679246" y="389.5660377358491" type="curve" smooth="yes"/>
      <point x="95.73262960831698" y="313.5230532128302"/>
      <point x="132.31511399554716" y="249.5760505573132"/>
      <point x="230.16981132075475" y="234.9245283018868" type="curve" smooth="yes"/>
      <point x="314.16981132075466" y="222.26415094339623" type="line" smooth="yes"/>
      <point x="368.8623683741132" y="213.74179660282263"/>
      <point x="379.32193765701135" y="194.29372448552454"/>
      <point x="372.0566037735849" y="163.2641509433962" type="curve" smooth="yes"/>
      <point x="364.6981132075471" y="133.73584905660377"/>
      <point x="338.26415094339626" y="114.2641509433962"/>
      <point x="258.4905660377358" y="114.2641509433962" type="curve" smooth="yes"/>
      <point x="169.33962264150944" y="114.2641509433962"/>
      <point x="120.28301886792453" y="123.98113207547168"/>
      <point x="64.64150943396226" y="152.24528301886792" type="curve"/>
      <point x="45.84905660377359" y="152.24528301886792" type="line"/>
      <point x="37.05660377358491" y="116.92452830188678"/>
      <point x="28.962264150943405" y="85.0"/>
      <point x="18.169811320754725" y="42.52830188679246" type="curve" smooth="yes"/>
      <point x="17.169811320754725" y="38.377358490566046"/>
      <point x="17.320754716981135" y="35.377358490566046"/>
      <point x="19.320754716981135" y="33.377358490566046" type="curve" smooth="yes"/>
      <point x="32.73584905660378" y="19.962264150943398"/>
      <point x="113.11320754716981" y="-8.849056603773585"/>
      <point x="240.9056603773585" y="-8.849056603773585" type="curve" smooth="yes"/>
      <point x="380.5471698113207" y="-8.849056603773585"/>
      <point x="473.3207547169811" y="39.0"/>
      <point x="501.566037735849" y="149.47169811320757" type="curve" smooth="yes"/>
      <point x="520.4840766346264" y="224.99722405424902"/>
      <point x="488.91863359607544" y="285.78430742144906"/>
      <point x="377.5283018867924" y="301.62264150943395" type="curve" smooth="yes"/>
      <point x="294.9245283018868" y="313.4339622641509" type="line" smooth="yes"/>
      <point x="251.87453959714716" y="320.02375753174334"/>
      <point x="240.58115210670186" y="341.5658260441661"/>
      <point x="247.58490566037733" y="370.2830188679245" type="curve" smooth="yes"/>
      <point x="255.8662920907321" y="405.33227034629437"/>
      <point x="288.37735849056605" y="423.622641509434"/>
      <point x="361.3018867924528" y="423.622641509434" type="curve" smooth="yes"/>
      <point x="383.4339622641509" y="423.622641509434"/>
      <point x="402.20754716981133" y="422.566037735849"/>
      <point x="420.22641509433964" y="419.75471698113205" type="curve"/>
      <point x="417.5755953480566" y="409.1514379959999"/>
      <point x="414.260626043466" y="395.56591560900375"/>
      <point x="409.8679245283019" y="378.7169811320755" type="curve"/>
      <point x="407.8679245283019" y="370.7169811320755" type="line"/>
      <point x="443.94339622641513" y="370.7169811320755"/>
      <point x="480.8679245283019" y="370.7169811320755"/>
      <point x="516.9433962264151" y="370.7169811320755" type="curve" smooth="yes"/>
      <point x="524.4905660377358" y="370.7169811320755"/>
      <point x="531.0377358490565" y="374.5660377358491"/>
      <point x="532.8867924528302" y="382.11320754716985" type="curve" smooth="yes"/>
      <point x="565.9245283018868" y="504.5283018867924" type="line"/>
      <point x="567.7735849056603" y="511.0754716981132"/>
      <point x="567.7735849056604" y="514.0754716981132"/>
      <point x="565.622641509434" y="516.2264150943396" type="curve" smooth="yes"/>
      <point x="554.9245283018869" y="526.9245283018868"/>
      <point x="495.8113207547169" y="546.7358490566038"/>
    </contour>
  </outline>
</glyph>
<glyph name="t" format="2">
  <advance width="600.0"/>
  <unicode hex="0074"/>
  <anchor x="302.9008737335264" y="-1.0" name="bottom"/>
  <anchor x="558.569705210934" y="700.0" name="caronslovak"/>
  <anchor x="345.24528301886795" y="667.1320754716982" name="top"/>
  <outline>
    <contour>
      <point x="126.37735849056605" y="537.8867924528302" type="line"/>
      <point x="117.51744432490568" y="500.9185750670472"/>
      <point x="109.25614058075473" y="471.3833117254057"/>
      <point x="100.39622641509435" y="434.41509433962267" type="curve" smooth="yes"/>
      <point x="98.39622641509436" y="428.9622641509434"/>
      <point x="101.69811320754718" y="423.41509433962267"/>
      <point x="108.54716981132077" y="423.41509433962267" type="curve"/>
      <point x="538.0188679245282" y="423.41509433962267" type="line"/>
      <point x="547.8113207547169" y="460.0377358490566"/>
      <point x="554.9056603773583" y="490.26415094339626"/>
      <point x="563.8490566037734" y="526.8867924528302" type="curve" smooth="yes"/>
      <point x="565.6981132075471" y="532.8867924528302"/>
      <point x="561.8490566037734" y="537.8867924528302"/>
      <point x="555.8490566037734" y="537.8867924528302" type="curve"/>
    </contour>
    <contour>
      <point x="461.1320754716981" y="114.62264150943393" type="curve"/>
      <point x="443.49056603773585" y="114.62264150943393" type="line"/>
      <point x="418.88679245283015" y="114.62264150943393"/>
      <point x="394.433962264151" y="114.62264150943393"/>
      <point x="369.8301886792452" y="114.62264150943393" type="curve" smooth="yes"/>
      <point x="339.1132075471698" y="114.62264150943393"/>
      <point x="318.4528301886793" y="119.92452830188678"/>
      <point x="306.54716981132077" y="131.83018867924528" type="curve" smooth="yes"/>
      <point x="291.33962264150944" y="147.03773584905662"/>
      <point x="290.49056603773585" y="173.1509433962264"/>
      <point x="302.09433962264154" y="212.22641509433961" type="curve"/>
      <point x="341.54716981132077" y="371.0377358490566"/>
      <point x="381.6981132075472" y="530.9433962264152"/>
      <point x="421.0" y="689.0" type="curve" smooth="yes"/>
      <point x="423.0" y="695.0"/>
      <point x="419.0" y="700.0"/>
      <point x="413.0" y="700.0" type="curve" smooth="yes"/>
      <point x="371.9811320754717" y="700.0"/>
      <point x="330.1132075471698" y="700.0"/>
      <point x="289.0943396226415" y="700.0" type="curve"/>
      <point x="281.0943396226415" y="667.0"/>
      <point x="272.0943396226415" y="633.8490566037735"/>
      <point x="264.0943396226415" y="600.0" type="curve" smooth="yes"/>
      <point x="231.7924528301887" y="472.188679245283"/>
      <point x="200.64150943396226" y="344.73584905660374"/>
      <point x="168.18867924528303" y="216.07547169811323" type="curve" smooth="yes"/>
      <point x="132.7358490566038" y="74.26415094339622"/>
      <point x="211.28301886792454" y="0.0"/>
      <point x="337.20754716981133" y="0.0" type="curve" smooth="yes"/>
      <point x="364.9056603773585" y="0.0"/>
      <point x="414.1509433962264" y="0.0"/>
      <point x="421.3018867924528" y="0.0" type="curve" smooth="yes"/>
      <point x="428.3018867924528" y="0.0"/>
      <point x="433.1509433962264" y="3.547169811320755"/>
      <point x="435.3018867924528" y="11.0" type="curve" smooth="yes"/>
      <point x="444.2452830188679" y="46.77358490566037"/>
      <point x="451.33962264150944" y="78.84905660377358"/>
    </contour>
  </outline>
</glyph>
<glyph name="u" format="2">
  <advance width="600.0"/>
  <unicode hex="0075"/>
  <outline>
    <contour>
      <point x="143.7358490566038" y="537.8867924528302" type="curve"/>
      <point x="136.43396226415095" y="509.5283018867924"/>
      <point x="127.58490566037736" y="475.8301886792453"/>
      <point x="118.73584905660378" y="441.58490566037733" type="curve" smooth="yes"/>
      <point x="94.73584905660378" y="343.03773584905656"/>
      <point x="69.0377358490566" y="244.49056603773585"/>
      <point x="45.03773584905661" y="145.9433962264151" type="curve" smooth="yes"/>
      <point x="24.33962264150944" y="64.69811320754717"/>
      <point x="56.24528301886795" y="-11.69811320754717"/>
      <point x="146.30188679245285" y="-11.69811320754717" type="curve" smooth="yes"/>
      <point x="207.66037735849056" y="-11.69811320754717"/>
      <point x="265.4150943396226" y="21.90566037735849"/>
      <point x="327.50943396226415" y="101.83018867924528" type="curve"/>
      <point x="368.6415094339623" y="101.83018867924528" type="line"/>
      <point x="395.15094339622647" y="241.30188679245282" type="line"/>
      <point x="322.4150943396226" y="156.66037735849054"/>
      <point x="272.64150943396226" y="130.94339622641508"/>
      <point x="230.41509433962264" y="130.94339622641508" type="curve" smooth="yes"/>
      <point x="198.43396226415092" y="130.94339622641508"/>
      <point x="188.56603773584902" y="148.32075471698113"/>
      <point x="196.67924528301884" y="179.92452830188677" type="curve" smooth="yes"/>
      <point x="224.9811320754717" y="296.377358490566"/>
      <point x="254.1320754716981" y="410.4339622641509"/>
      <point x="283.28301886792457" y="526.8867924528302" type="curve" smooth="yes"/>
      <point x="285.28301886792457" y="532.8867924528302"/>
      <point x="281.28301886792457" y="537.8867924528302"/>
      <point x="275.28301886792457" y="537.8867924528302" type="curve" smooth="yes"/>
      <point x="231.71698113207546" y="537.8867924528302"/>
      <point x="187.30188679245285" y="537.8867924528302"/>
    </contour>
    <contour>
      <point x="451.35849056603774" y="537.8867924528302" type="curve"/>
      <point x="407.7169811320755" y="366.0188679245283"/>
      <point x="384.4528301886793" y="278.05660377358487"/>
      <point x="353.54716981132077" y="152.0377358490566" type="curve" smooth="yes"/>
      <point x="330.7547169811321" y="60.471698113207545"/>
      <point x="362.90566037735846" y="0.0"/>
      <point x="454.5094339622641" y="0.0" type="curve" smooth="yes"/>
      <point x="467.9056603773585" y="0.0"/>
      <point x="492.09433962264154" y="0.0"/>
      <point x="499.6415094339623" y="0.0" type="curve" smooth="yes"/>
      <point x="506.3396226415095" y="0.0"/>
      <point x="511.0377358490567" y="2.849056603773585"/>
      <point x="512.8867924528303" y="10.245283018867923" type="curve" smooth="yes"/>
      <point x="521.8301886792453" y="45.16981132075471"/>
      <point x="530.9245283018869" y="80.15094339622641"/>
      <point x="539.867924528302" y="115.07547169811319" type="curve"/>
      <point x="521.377358490566" y="115.07547169811319" type="line"/>
      <point x="517.622641509434" y="115.07547169811319"/>
      <point x="514.0188679245283" y="115.07547169811319"/>
      <point x="509.1132075471698" y="115.07547169811319" type="curve" smooth="yes"/>
      <point x="502.90566037735846" y="115.07547169811319"/>
      <point x="496.4528301886792" y="117.07547169811319"/>
      <point x="493.0" y="120.52830188679245" type="curve" smooth="yes"/>
      <point x="488.6981132075472" y="124.83018867924527"/>
      <point x="488.24528301886795" y="130.73584905660377"/>
      <point x="491.0" y="141.45283018867923" type="curve" smooth="yes"/>
      <point x="519.0566037735849" y="254.52830188679243"/>
      <point x="555.2075471698114" y="397.377358490566"/>
      <point x="587.5094339622642" y="526.5849056603773" type="curve" smooth="yes"/>
      <point x="589.5094339622642" y="533.7358490566037"/>
      <point x="585.6603773584906" y="537.8867924528302"/>
      <point x="579.3584905660377" y="537.8867924528302" type="curve" smooth="yes"/>
      <point x="536.6415094339623" y="537.8867924528302"/>
      <point x="494.0754716981132" y="537.8867924528302"/>
    </contour>
  </outline>
</glyph>
<glyph name="z" format="2">
  <advance width="600.0"/>
  <unicode hex="007A"/>
  <outline>
    <contour>
      <point x="193.79245283018867" y="537.8867924528302" type="line"/>
      <point x="186.54716981132074" y="502.9622641509434"/>
      <point x="178.45283018867926" y="469.33962264150944"/>
      <point x="171.20754716981133" y="434.41509433962267" type="curve" smooth="yes"/>
      <point x="170.0566037735849" y="427.41509433962267"/>
      <point x="173.9056603773585" y="423.41509433962267"/>
      <point x="178.35849056603772" y="423.41509433962267" type="curve" smooth="yes"/>
      <point x="325.60377358490564" y="423.41509433962267" type="line" smooth="yes"/>
      <point x="376.58490566037733" y="423.41509433962267"/>
      <point x="401.9433962264151" y="429.6603773584906"/>
      <point x="442.33962264150944" y="443.3018867924529" type="curve"/>
      <point x="442.3396226415094" y="426.50943396226415" type="line"/>
      <point x="296.6981132075472" y="322.24528301886795"/>
      <point x="172.58490566037736" y="232.01886792452828"/>
      <point x="36.60377358490565" y="136.50943396226413" type="curve"/>
      <point x="3.075471698113203" y="3.6981132075471694" type="line" smooth="yes"/>
      <point x="0.3773584905660332" y="-7.245283018867925"/>
      <point x="6.622641509433963" y="-11.245283018867923"/>
      <point x="14.320754716981137" y="-11.245283018867923" type="curve" smooth="yes"/>
      <point x="18.320754716981135" y="-11.245283018867923"/>
      <point x="23.018867924528315" y="-9.39622641509434"/>
      <point x="27.47169811320755" y="-5.943396226415093" type="curve"/>
      <point x="212.15094339622638" y="131.811320754717"/>
      <point x="408.3207547169811" y="280.26415094339626"/>
      <point x="555.2075471698114" y="389.4716981132076" type="curve"/>
      <point x="588.8867924528303" y="526.8867924528302" type="line" smooth="yes"/>
      <point x="590.0377358490566" y="533.0377358490566"/>
      <point x="587.8867924528303" y="537.8867924528302"/>
      <point x="580.8867924528303" y="537.8867924528302" type="curve" smooth="yes"/>
    </contour>
    <contour>
      <point x="246.9811320754717" y="177.30188679245282" type="line"/>
      <point x="126.96226415094338" y="87.15094339622642" type="line"/>
      <point x="185.90566037735846" y="19.30188679245283"/>
      <point x="234.88679245283015" y="0.0"/>
      <point x="309.9056603773585" y="0.0" type="curve" smooth="yes"/>
      <point x="361.3396226415094" y="0.0"/>
      <point x="461.52830188679246" y="0.0"/>
      <point x="468.52830188679246" y="0.0" type="curve" smooth="yes"/>
      <point x="475.52830188679246" y="0.0"/>
      <point x="480.52830188679246" y="4.0"/>
      <point x="482.52830188679246" y="11.0" type="curve" smooth="yes"/>
      <point x="484.37735849056605" y="19.69811320754717"/>
      <point x="504.50943396226415" y="102.77358490566036"/>
      <point x="507.50943396226415" y="114.92452830188678" type="curve"/>
      <point x="491.2641509433962" y="114.92452830188678" type="line"/>
      <point x="434.7358490566038" y="114.92452830188678"/>
      <point x="372.13207547169816" y="114.92452830188678"/>
      <point x="315.6037735849057" y="114.92452830188678" type="curve" smooth="yes"/>
      <point x="284.75471698113205" y="114.92452830188678"/>
      <point x="273.90566037735846" y="116.98113207547169"/>
      <point x="246.98113207547166" y="140.41509433962264" type="curve"/>
    </contour>
    <contour>
      <point x="150.37735849056605" y="569.3962264150944" type="line"/>
      <point x="139.22641509433964" y="525.0943396226415"/>
      <point x="114.58490566037737" y="427.52830188679246"/>
      <point x="103.58490566037737" y="383.22641509433964" type="curve" smooth="yes"/>
      <point x="101.58490566037737" y="377.22641509433964"/>
      <point x="105.58490566037737" y="372.22641509433964"/>
      <point x="111.58490566037737" y="372.22641509433964" type="curve" smooth="yes"/>
      <point x="145.81132075471697" y="372.22641509433964"/>
      <point x="188.52830188679246" y="372.22641509433964"/>
      <point x="222.75471698113205" y="372.22641509433964" type="curve"/>
      <point x="233.9056603773585" y="416.52830188679246"/>
      <point x="258.3962264150943" y="514.0943396226415"/>
      <point x="269.5471698113207" y="558.3962264150944" type="curve" smooth="yes"/>
      <point x="271.5471698113207" y="565.3962264150944"/>
      <point x="268.5471698113207" y="569.3962264150944"/>
      <point x="261.5471698113207" y="569.3962264150944" type="curve" smooth="yes"/>
    </contour>
  </outline>
</glyph>
<glyph name="asciitilde" format="2">
  <advance width="600.0"/>
  <unicode hex="007E"/>
  <outline>
    <contour>
      <point x="446.5849056603774" y="314.0566037735849" type="curve" smooth="yes"/>
      <point x="354.49056603773585" y="314.0566037735849"/>
      <point x="316.0188679245283" y="414.0566037735849"/>
      <point x="211.22641509433961" y="414.0566037735849" type="curve" smooth="yes"/>
      <point x="153.33962264150944" y="414.0566037735849"/>
      <point x="120.18867924528301" y="398.90566037735846"/>
      <point x="92.18867924528301" y="377.60377358490564" type="curve" smooth="yes"/>
      <point x="80.49056603773585" y="368.7547169811321"/>
      <point x="80.33962264150944" y="363.7547169811321"/>
      <point x="77.64150943396226" y="352.1132075471698" type="curve" smooth="yes"/>
      <point x="69.39622641509433" y="321.1320754716981"/>
      <point x="60.301886792452834" y="279.20754716981133"/>
      <point x="51.35849056603774" y="240.88679245283018" type="curve"/>
      <point x="70.15094339622641" y="240.88679245283018" type="line"/>
      <point x="101.56603773584905" y="269.6981132075472"/>
      <point x="131.71698113207546" y="285.54716981132077"/>
      <point x="173.9622641509434" y="285.54716981132077" type="curve" smooth="yes"/>
      <point x="259.5660377358491" y="285.54716981132077"/>
      <point x="296.52830188679246" y="185.54716981132077"/>
      <point x="413.2641509433962" y="185.54716981132077" type="curve" smooth="yes"/>
      <point x="462.2075471698113" y="185.54716981132077"/>
      <point x="493.811320754717" y="194.30188679245285"/>
      <point x="521.4150943396227" y="216.30188679245285" type="curve" smooth="yes"/>
      <point x="531.4150943396227" y="224.15094339622644"/>
      <point x="533.4150943396227" y="230.15094339622644"/>
      <point x="536.1132075471698" y="241.7924528301887" type="curve" smooth="yes"/>
      <point x="543.5094339622641" y="273.37735849056605"/>
      <point x="554.4528301886793" y="316.1509433962264"/>
      <point x="564.2452830188679" y="354.47169811320754" type="curve"/>
      <point x="545.4528301886792" y="354.47169811320754" type="line"/>
      <point x="513.9433962264151" y="324.11320754716985"/>
      <point x="482.33962264150944" y="314.0566037735849"/>
    </contour>
  </outline>
</glyph>
<glyph name="copyright" format="2">
  <advance width="600.0"/>
  <unicode hex="00A9"/>
  <outline>
    <contour>
      <point x="393.49056603773585" y="715.0" type="curve" smooth="yes"/>
      <point x="211.24528301886792" y="715.0"/>
      <point x="102.26415094339623" y="619.7169811320755"/>
      <point x="54.113207547169814" y="429.66037735849056" type="curve" smooth="yes"/>
      <point x="13.811320754716983" y="271.0" type="line" smooth="yes"/>
      <point x="-30.188679245283016" y="98.09433962264151"/>
      <point x="64.39622641509435" y="-15.0"/>
      <point x="241.69811320754718" y="-15.0" type="curve" smooth="yes"/>
      <point x="425.35849056603774" y="-15.0"/>
      <point x="537.0377358490566" y="81.52830188679245"/>
      <point x="585.3396226415094" y="270.33962264150944" type="curve" smooth="yes"/>
      <point x="625.6415094339624" y="429.0" type="line" smooth="yes"/>
      <point x="668.0943396226415" y="595.7169811320755"/>
      <point x="583.245283018868" y="715.0"/>
    </contour>
    <contour>
      <point x="393.7358490566038" y="657.2641509433962" type="curve" smooth="yes"/>
      <point x="462.20754716981133" y="657.2641509433962"/>
      <point x="512.3207547169811" y="636.1132075471698"/>
      <point x="542.0188679245283" y="602.0566037735849" type="curve"/>
      <point x="574.1132075471697" y="565.7547169811321"/>
      <point x="582.5094339622641" y="511.45283018867923"/>
      <point x="566.3584905660377" y="445.0" type="curve" smooth="yes"/>
      <point x="518.3584905660377" y="254.0" type="line" smooth="yes"/>
      <point x="479.90566037735846" y="100.33962264150944"/>
      <point x="385.6792452830189" y="44.433962264150935"/>
      <point x="245.0566037735849" y="44.433962264150935" type="curve" smooth="yes"/>
      <point x="179.0" y="44.433962264150935"/>
      <point x="127.03773584905659" y="62.58490566037735"/>
      <point x="97.0377358490566" y="96.0377358490566" type="curve"/>
      <point x="65.18867924528301" y="133.03773584905662"/>
      <point x="56.79245283018868" y="188.64150943396226"/>
      <point x="73.09433962264151" y="255.0" type="curve" smooth="yes"/>
      <point x="121.09433962264151" y="446.0" type="line" smooth="yes"/>
      <point x="155.30188679245282" y="582.8301886792453"/>
      <point x="238.188679245283" y="657.2641509433962"/>
    </contour>
    <contour>
      <point x="374.50943396226415" y="566.0" type="curve" smooth="yes"/>
      <point x="279.3584905660378" y="566.0"/>
      <point x="228.20754716981133" y="515.6037735849056"/>
      <point x="206.20754716981133" y="427.60377358490564" type="curve" smooth="yes"/>
      <point x="168.0566037735849" y="273.0" type="line" smooth="yes"/>
      <point x="146.0566037735849" y="187.54716981132074"/>
      <point x="184.90566037735852" y="134.0"/>
      <point x="272.1509433962264" y="134.0" type="curve" smooth="yes"/>
      <point x="327.8490566037736" y="134.0"/>
      <point x="362.75471698113205" y="146.15094339622644"/>
      <point x="389.3018867924528" y="165.0566037735849" type="curve" smooth="yes"/>
      <point x="395.45283018867923" y="169.35849056603774"/>
      <point x="397.3018867924528" y="176.30188679245285"/>
      <point x="399.45283018867923" y="185.75471698113208" type="curve" smooth="yes"/>
      <point x="405.0" y="208.0943396226415"/>
      <point x="411.54716981132077" y="234.83018867924528"/>
      <point x="417.9433962264151" y="259.7169811320755" type="curve"/>
      <point x="405.9433962264151" y="259.7169811320755" type="line"/>
      <point x="369.79245283018867" y="227.81132075471697"/>
      <point x="339.7358490566038" y="213.1132075471698"/>
      <point x="297.58490566037733" y="213.1132075471698" type="curve" smooth="yes"/>
      <point x="276.0754716981132" y="213.1132075471698"/>
      <point x="261.3207547169811" y="218.26415094339623"/>
      <point x="254.71698113207546" y="228.71698113207546" type="curve"/>
      <point x="246.96226415094335" y="238.47169811320754"/>
      <point x="246.96226415094338" y="253.2830188679245"/>
      <point x="253.4150943396226" y="276.54716981132077" type="curve" smooth="yes"/>
      <point x="291.71698113207543" y="428.60377358490564" type="line" smooth="yes"/>
      <point x="301.62264150943395" y="468.22641509433964"/>
      <point x="324.13207547169816" y="490.2830188679245"/>
      <point x="361.9056603773585" y="490.2830188679245" type="curve" smooth="yes"/>
      <point x="384.47169811320754" y="490.2830188679245"/>
      <point x="398.73584905660374" y="483.9811320754717"/>
      <point x="409.6415094339623" y="472.8679245283019" type="curve"/>
      <point x="403.188679245283" y="512.3207547169811" type="line"/>
      <point x="395.4339622641509" y="482.6981132075472"/>
      <point x="389.58490566037733" y="456.60377358490564"/>
      <point x="382.88679245283015" y="431.50943396226415" type="curve" smooth="yes"/>
      <point x="380.88679245283015" y="424.50943396226415"/>
      <point x="383.03773584905656" y="420.50943396226415"/>
      <point x="390.88679245283015" y="420.50943396226415" type="curve" smooth="yes"/>
      <point x="413.0754716981132" y="420.50943396226415"/>
      <point x="435.2641509433962" y="420.50943396226415"/>
      <point x="457.45283018867923" y="420.50943396226415" type="curve"/>
      <point x="465.3018867924528" y="450.9056603773585"/>
      <point x="473.3018867924528" y="481.3584905660377"/>
      <point x="480.1509433962264" y="511.75471698113205" type="curve" smooth="yes"/>
      <point x="482.1509433962264" y="516.7547169811321"/>
      <point x="481.1509433962264" y="521.6037735849056"/>
      <point x="477.3018867924528" y="526.4528301886793" type="curve" smooth="yes"/>
      <point x="460.0" y="547.7547169811321"/>
      <point x="423.60377358490564" y="566.0"/>
    </contour>
  </outline>
</glyph>
<glyph name="oslash" format="2">
  <advance width="600.0"/>
  <unicode hex="00F8"/>
  <anchor x="352.7169811320755" y="535.3018867924528" name="top"/>
  <outline>
    <contour>
      <point x="604.7547169811321" y="603.2264150943396" type="curve"/>
      <point x="590.0" y="603.2264150943396"/>
      <point x="523.7169811320755" y="603.2264150943396"/>
      <point x="503.47169811320754" y="603.2264150943396" type="curve" smooth="yes"/>
      <point x="492.47169811320754" y="603.2264150943396"/>
      <point x="489.47169811320754" y="601.2264150943396"/>
      <point x="476.9245283018869" y="584.8301886792452" type="curve"/>
      <point x="455.98113207547175" y="555.6415094339623"/>
      <point x="431.7924528301887" y="523.9056603773585"/>
      <point x="407.4528301886793" y="489.62264150943395" type="curve"/>
      <point x="407.8836763116227" y="482.98222781495855"/>
      <point x="407.8144368959245" y="476.01777218504157"/>
      <point x="408.24528301886795" y="469.37735849056605" type="curve"/>
      <point x="364.39622641509436" y="415.811320754717"/>
      <point x="317.0" y="357.1509433962264"/>
      <point x="268.05660377358487" y="297.64150943396226" type="curve" smooth="yes"/>
      <point x="232.56603773584905" y="252.75471698113208"/>
      <point x="204.0377358490566" y="197.69811320754715"/>
      <point x="195.33962264150944" y="157.66037735849054" type="curve"/>
      <point x="207.43396226415095" y="175.84905660377356" type="line"/>
      <point x="145.62264150943398" y="175.84905660377356" type="line"/>
      <point x="92.01886792452831" y="62.64150943396227" type="line"/>
      <point x="70.9622641509434" y="34.132075471698116"/>
      <point x="19.838171094007546" y="-30.03135604759245"/>
      <point x="-6.566037735849053" y="-64.49056603773585" type="curve"/>
      <point x="3.433962264150947" y="-64.49056603773585"/>
      <point x="79.71698113207547" y="-64.49056603773585"/>
      <point x="92.0188679245283" y="-64.49056603773585" type="curve" smooth="yes"/>
      <point x="99.86792452830188" y="-64.49056603773585"/>
      <point x="102.0188679245283" y="-63.490566037735846"/>
      <point x="108.32075471698111" y="-56.18867924528301" type="curve" smooth="yes"/>
      <point x="127.32075471698111" y="-31.339622641509433"/>
      <point x="159.60377358490564" y="10.339622641509433"/>
      <point x="188.79245283018867" y="47.92452830188679" type="curve"/>
      <point x="192.32172821818867" y="56.81424125833962"/>
      <point x="196.31108976291318" y="66.06074327523018"/>
      <point x="199.88679245283018" y="74.99999999999999" type="curve"/>
      <point x="251.62264150943398" y="138.0"/>
      <point x="302.66037735849056" y="203.69811320754718"/>
      <point x="352.6981132075472" y="266.6981132075472" type="curve" smooth="yes"/>
      <point x="378.6603773584906" y="299.2641509433962"/>
      <point x="398.20754716981133" y="345.79245283018867"/>
      <point x="401.811320754717" y="383.377358490566" type="curve"/>
      <point x="386.26415094339626" y="362.33962264150944" type="line"/>
      <point x="489.4905660377359" y="362.33962264150944" type="line"/>
      <point x="501.1320754716981" y="473.20754716981133" type="line"/>
      <point x="534.0754716981132" y="513.1509433962265"/>
      <point x="567.5660377358489" y="556.4905660377359"/>
    </contour>
    <component base="o"/>
  </outline>
</glyph>
<glyph name="eogonek" format="2">
  <advance width="600.0"/>
  <unicode hex="0119"/>
  <outline>
    <contour>
      <point x="192.32075471698116" y="-130.7169811320755" type="curve" smooth="yes"/>
      <point x="177.622641509434" y="-207.75471698113208"/>
      <point x="223.66037735849056" y="-250.0"/>
      <point x="296.64150943396226" y="-250.0" type="curve" smooth="yes"/>
      <point x="340.49056603773585" y="-250.0"/>
      <point x="380.8867924528302" y="-235.54716981132074"/>
      <point x="385.7358490566038" y="-215.0" type="curve" smooth="yes"/>
      <point x="404.7169811320755" y="-142.92452830188682"/>
      <point x="409.0188679245283" y="-124.8679245283019"/>
      <point x="413.41509433962267" y="-105.98113207547172" type="curve"/>
      <point x="394.62264150943395" y="-105.98113207547172" type="line"/>
      <point x="378.26415094339626" y="-115.18867924528304"/>
      <point x="362.11320754716985" y="-120.49056603773587"/>
      <point x="344.3018867924528" y="-120.49056603773587" type="curve" smooth="yes"/>
      <point x="318.39622641509436" y="-120.49056603773587"/>
      <point x="307.49056603773585" y="-108.98113207547172"/>
      <point x="312.79245283018867" y="-86.56603773584908" type="curve" smooth="yes"/>
      <point x="320.6981132075472" y="-54.13207547169812"/>
      <point x="355.41509433962267" y="-23.50943396226415"/>
      <point x="422.6415094339623" y="-2.2830188679245254" type="curve" smooth="yes"/>
      <point x="440.33962264150944" y="3.169811320754721"/>
      <point x="449.03773584905656" y="16.01886792452831"/>
      <point x="453.88679245283015" y="35.56603773584906" type="curve" smooth="yes"/>
      <point x="443.0" y="44.35849056603774"/>
      <point x="427.566037735849" y="47.35849056603774"/>
      <point x="404.9811320754717" y="43.509433962264154" type="curve" smooth="yes"/>
      <point x="310.35849056603774" y="25.981132075471695"/>
      <point x="206.622641509434" y="-54.113207547169814"/>
    </contour>
    <component base="e.italic"/>
  </outline>
</glyph>
<glyph name="dotlessi" format="2">
  <advance width="600.0"/>
  <unicode hex="0131"/>
  <outline>
    <contour>
      <point x="121.37735849056605" y="537.8867924528302" type="curve"/>
      <point x="112.43396226415095" y="503.1132075471698"/>
      <point x="103.49056603773586" y="466.49056603773585"/>
      <point x="94.54716981132077" y="431.7169811320755" type="curve" smooth="yes"/>
      <point x="92.54716981132077" y="423.8679245283019"/>
      <point x="96.54716981132077" y="420.7169811320755"/>
      <point x="103.39622641509436" y="420.7169811320755" type="curve" smooth="yes"/>
      <point x="152.9056603773585" y="420.7169811320755"/>
      <point x="203.41509433962267" y="420.7169811320755"/>
      <point x="253.07547169811323" y="420.7169811320755" type="curve"/>
      <point x="275.5660377358491" y="420.7169811320755" type="line"/>
      <point x="253.90566037735852" y="333.8301886792453"/>
      <point x="232.00000000000003" y="248.30188679245285"/>
      <point x="210.33962264150944" y="160.35849056603772" type="curve" smooth="yes"/>
      <point x="188.39622641509436" y="71.58490566037736"/>
      <point x="216.43396226415095" y="0.0"/>
      <point x="350.1509433962264" y="0.0" type="curve" smooth="yes"/>
      <point x="405.47169811320754" y="0.0"/>
      <point x="460.77358490566036" y="0.0"/>
      <point x="466.77358490566036" y="0.0" type="curve" smooth="yes"/>
      <point x="474.3207547169811" y="0.0"/>
      <point x="478.77358490566036" y="3.547169811320754"/>
      <point x="480.77358490566036" y="11.0" type="curve" smooth="yes"/>
      <point x="489.7169811320755" y="46.075471698113205"/>
      <point x="498.50943396226415" y="82.24528301886791"/>
      <point x="507.45283018867923" y="117.1698113207547" type="curve"/>
      <point x="488.66037735849056" y="117.1698113207547" type="line"/>
      <point x="449.8679245283019" y="117.1698113207547"/>
      <point x="411.2264150943396" y="117.1698113207547"/>
      <point x="372.4339622641509" y="117.1698113207547" type="curve" smooth="yes"/>
      <point x="358.11320754716974" y="117.1698113207547"/>
      <point x="349.90566037735846" y="119.47169811320755"/>
      <point x="345.0" y="124.37735849056602" type="curve" smooth="yes"/>
      <point x="338.79245283018867" y="130.58490566037733"/>
      <point x="339.49056603773585" y="138.79245283018867"/>
      <point x="343.3962264150943" y="154.2641509433962" type="curve" smooth="yes"/>
      <point x="374.8490566037736" y="279.22641509433964"/>
      <point x="405.0" y="402.6792452830189"/>
      <point x="436.3018867924528" y="526.8867924528302" type="curve" smooth="yes"/>
      <point x="438.3018867924528" y="534.8867924528302"/>
      <point x="434.3018867924528" y="537.8867924528302"/>
      <point x="428.3018867924528" y="537.8867924528302" type="curve" smooth="yes"/>
      <point x="326.22641509433964" y="537.8867924528302"/>
      <point x="223.45283018867926" y="537.8867924528302"/>
    </contour>
  </outline>
</glyph>
<glyph name="lcaron" format="2">
  <advance width="600.0"/>
  <unicode hex="013E"/>
  <outline>
    <contour>
      <point x="612.3207547169811" y="565.2264150943396" type="curve" smooth="yes"/>
      <point x="621.4716981132075" y="565.2264150943396"/>
      <point x="627.1698113207547" y="569.377358490566"/>
      <point x="631.0188679245283" y="576.0754716981132" type="curve" smooth="yes"/>
      <point x="669.1132075471698" y="648.1698113207548"/>
      <point x="678.2075471698113" y="666.3584905660377"/>
      <point x="715.1509433962264" y="735.1509433962265" type="curve" smooth="yes"/>
      <point x="719.1509433962264" y="743.1509433962265"/>
      <point x="716.3018867924528" y="750.1509433962265"/>
      <point x="707.5471698113207" y="750.1509433962265" type="curve" smooth="yes"/>
      <point x="662.6792452830189" y="750.1509433962265"/>
      <point x="626.0566037735849" y="750.1509433962265"/>
      <point x="586.6792452830189" y="750.1509433962265" type="curve"/>
      <point x="566.2264150943396" y="672.4150943396227"/>
      <point x="558.2264150943397" y="642.4716981132076"/>
      <point x="537.3207547169811" y="565.2264150943396" type="curve"/>
      <point x="570.0943396226415" y="565.2264150943396"/>
      <point x="587.433962264151" y="565.2264150943396"/>
    </contour>
    <component base="l.italic"/>
  </outline>
</glyph>
<glyph name="ldot" format="2">
  <advance width="600.0"/>
  <unicode hex="0140"/>
  <outline>
    <contour>
      <point x="24.301886792452834" y="114.62264150943395" type="line"/>
      <point x="15.358490566037739" y="77.99999999999999"/>
      <point x="7.26415094339623" y="47.622641509433954"/>
      <point x="-1.6792452830188629" y="11.150943396226415" type="curve" smooth="yes"/>
      <point x="-3.679245283018863" y="5.69811320754717"/>
      <point x="-0.5283018867924474" y="0.0"/>
      <point x="6.622641509433968" y="0.0" type="curve" smooth="yes"/>
      <point x="436.26415094339615" y="0.0" type="line"/>
      <point x="445.2075471698113" y="36.622641509433954"/>
      <point x="453.30188679245276" y="66.99999999999999"/>
      <point x="462.24528301886784" y="103.62264150943395" type="curve" smooth="yes"/>
      <point x="464.24528301886784" y="109.62264150943395"/>
      <point x="460.24528301886784" y="114.62264150943395"/>
      <point x="454.24528301886784" y="114.62264150943395" type="curve"/>
    </contour>
    <contour>
      <point x="590.2641509433961" y="333.6792452830189" type="curve"/>
      <point x="620.8490566037735" y="455.3207547169811" type="line" smooth="yes"/>
      <point x="622.8490566037735" y="462.3207547169811"/>
      <point x="619.8490566037735" y="466.3207547169811"/>
      <point x="612.8490566037735" y="466.3207547169811" type="curve" smooth="yes"/>
      <point x="570.3207547169811" y="466.3207547169811"/>
      <point x="543.9245283018868" y="466.3207547169811"/>
      <point x="501.3962264150943" y="466.3207547169811" type="curve"/>
      <point x="470.811320754717" y="344.6792452830189" type="line" smooth="yes"/>
      <point x="468.811320754717" y="337.6792452830189"/>
      <point x="471.811320754717" y="333.6792452830189"/>
      <point x="478.811320754717" y="333.6792452830189" type="curve" smooth="yes"/>
      <point x="521.3396226415093" y="333.6792452830189"/>
      <point x="547.7358490566037" y="333.6792452830189"/>
    </contour>
    <contour>
      <point x="202.45283018867926" y="750.0" type="curve"/>
      <point x="193.50943396226415" y="713.377358490566"/>
      <point x="186.26415094339623" y="683.0"/>
      <point x="177.32075471698113" y="646.377358490566" type="curve" smooth="yes"/>
      <point x="175.32075471698113" y="640.0754716981132"/>
      <point x="179.32075471698113" y="635.377358490566"/>
      <point x="185.32075471698113" y="635.377358490566" type="curve" smooth="yes"/>
      <point x="227.64150943396228" y="635.377358490566"/>
      <point x="254.54716981132074" y="635.377358490566"/>
      <point x="303.66037735849056" y="635.377358490566" type="curve"/>
      <point x="309.66037735849056" y="635.377358490566" type="line"/>
      <point x="264.6981132075472" y="460.22641509433964"/>
      <point x="221.64150943396228" y="287.3018867924529"/>
      <point x="187.56603773584905" y="153.75471698113205" type="curve" smooth="yes"/>
      <point x="181.16981132075472" y="128.47169811320754"/>
      <point x="174.9245283018868" y="104.18867924528301"/>
      <point x="168.52830188679246" y="78.90566037735847" type="curve"/>
      <point x="144.64150943396228" y="52.018867924528294" type="line"/>
      <point x="297.03773584905656" y="52.018867924528294" type="line"/>
      <point x="355.33962264150944" y="280.5283018867924"/>
      <point x="412.79245283018867" y="510.03773584905656"/>
      <point x="471.0943396226415" y="738.5471698113207" type="curve" smooth="yes"/>
      <point x="471.5471698113207" y="746.1509433962265"/>
      <point x="467.3962264150943" y="750.0"/>
      <point x="462.2452830188679" y="750.0" type="curve"/>
      <point x="365.41509433962267" y="750.0"/>
      <point x="286.5471698113207" y="750.0"/>
    </contour>
  </outline>
</glyph>
<glyph name="OE" format="2">
  <advance width="600.0"/>
  <unicode hex="0152"/>
  <outline>
    <contour>
      <point x="348.6037735849057" y="709.3962264150944" type="curve" smooth="yes"/>
      <point x="201.28301886792454" y="709.3962264150944"/>
      <point x="115.83018867924528" y="635.5849056603773"/>
      <point x="76.98113207547169" y="478.49056603773585" type="curve" smooth="yes"/>
      <point x="14.283018867924532" y="229.39622641509433" type="line" smooth="yes"/>
      <point x="-20.716981132075468" y="90.39622641509433"/>
      <point x="49.018867924528315" y="-9.39622641509434"/>
      <point x="179.05660377358492" y="-9.39622641509434" type="curve" smooth="yes"/>
      <point x="203.39622641509436" y="-9.39622641509434"/>
      <point x="228.33962264150946" y="-5.69811320754717"/>
      <point x="272.49056603773585" y="10.39622641509434" type="curve"/>
      <point x="236.09433962264148" y="9.792452830188678" type="line"/>
      <point x="214.3396226415094" y="0.0" type="line" smooth="yes"/>
      <point x="259.88679245283015" y="0.0"/>
      <point x="275.28301886792445" y="0.0"/>
      <point x="290.8301886792452" y="0.0" type="curve" smooth="yes"/>
      <point x="506.3207547169812" y="0.0" type="line"/>
      <point x="516.11320754717" y="38.32075471698113"/>
      <point x="524.2075471698114" y="73.24528301886791"/>
      <point x="534.0000000000001" y="112.41509433962263" type="curve" smooth="yes"/>
      <point x="536.0000000000001" y="119.41509433962263"/>
      <point x="533.0" y="123.41509433962263"/>
      <point x="526.0" y="123.41509433962263" type="curve" smooth="yes"/>
      <point x="367.7547169811321" y="123.41509433962263" type="line"/>
      <point x="402.7169811320755" y="264.1132075471698"/>
      <point x="438.9811320754717" y="406.622641509434"/>
      <point x="474.24528301886795" y="548.3773584905662" type="curve" smooth="yes"/>
      <point x="482.64150943396226" y="580.4150943396227"/>
      <point x="490.188679245283" y="613.1509433962265"/>
      <point x="498.5849056603774" y="645.0377358490566" type="curve"/>
      <point x="510.67924528301893" y="656.0377358490566" type="line"/>
      <point x="381.1132075471698" y="656.0377358490566" type="line"/>
      <point x="335.60377358490564" y="475.8490566037736"/>
      <point x="290.9433962264151" y="295.50943396226415"/>
      <point x="245.43396226415092" y="115.32075471698111" type="curve"/>
      <point x="234.88679245283018" y="114.1698113207547"/>
      <point x="223.33962264150944" y="113.1698113207547"/>
      <point x="209.64150943396228" y="113.1698113207547" type="curve" smooth="yes"/>
      <point x="145.69811320754715" y="113.1698113207547"/>
      <point x="119.88679245283016" y="153.24528301886795"/>
      <point x="137.30188679245282" y="222.75471698113208" type="curve" smooth="yes"/>
      <point x="199.1509433962264" y="468.45283018867923" type="line" smooth="yes"/>
      <point x="220.1132075471698" y="553.1509433962264"/>
      <point x="256.79245283018867" y="586.8301886792453"/>
      <point x="327.2264150943396" y="586.8301886792453" type="curve" smooth="yes"/>
      <point x="341.9811320754717" y="586.8301886792453"/>
      <point x="354.4339622641509" y="585.5283018867926"/>
      <point x="364.98113207547163" y="584.2264150943397" type="curve"/>
      <point x="403.5660377358491" y="576.5849056603773" type="line"/>
      <point x="650.7924528301888" y="576.5849056603773" type="line"/>
      <point x="660.5849056603774" y="615.754716981132"/>
      <point x="669.5283018867926" y="649.8301886792453"/>
      <point x="679.3207547169812" y="689.0" type="curve" smooth="yes"/>
      <point x="681.3207547169812" y="696.0"/>
      <point x="678.3207547169812" y="700.0"/>
      <point x="671.3207547169812" y="700.0" type="curve"/>
      <point x="430.22641509433953" y="700.0" type="line"/>
      <point x="415.13207547169804" y="700.0" type="line"/>
      <point x="397.18867924528297" y="706.5471698113207"/>
      <point x="373.69811320754724" y="709.3962264150944"/>
    </contour>
    <contour>
      <point x="391.79245283018867" y="411.9622641509434" type="line"/>
      <point x="362.1132075471698" y="292.79245283018867" type="line"/>
      <point x="542.8490566037735" y="292.79245283018867" type="line"/>
      <point x="551.7924528301886" y="329.41509433962267"/>
      <point x="559.8867924528302" y="362.64150943396226"/>
      <point x="569.6792452830189" y="400.9622641509434" type="curve" smooth="yes"/>
      <point x="571.6792452830189" y="407.9622641509434"/>
      <point x="568.6792452830189" y="411.9622641509434"/>
      <point x="561.6792452830189" y="411.9622641509434" type="curve"/>
    </contour>
  </outline>
</glyph>
<glyph name="LJ" format="2">
  <advance width="600.0"/>
  <unicode hex="01C7"/>
  <outline>
    <contour>
      <point x="-52.169811320754704" y="0.0" type="curve" smooth="yes"/>
      <point x="297.1698113207548" y="0.0" type="line"/>
      <point x="305.4150943396227" y="87.62264150943395"/>
      <point x="261.35849056603774" y="121.71698113207546"/>
      <point x="228.92452830188682" y="121.71698113207546" type="curve" smooth="yes"/>
      <point x="102.41509433962261" y="121.71698113207546" type="line"/>
      <point x="148.62264150943392" y="308.5471698113207"/>
      <point x="197.52830188679243" y="502.1698113207547"/>
      <point x="243.73584905660374" y="689.0" type="curve"/>
      <point x="245.73584905660374" y="696.0"/>
      <point x="242.73584905660374" y="700.0"/>
      <point x="235.73584905660374" y="700.0" type="curve" smooth="yes"/>
      <point x="191.32075471698113" y="700.0"/>
      <point x="156.24528301886792" y="700.0"/>
      <point x="111.8301886792453" y="700.0" type="curve"/>
      <point x="104.67924528301887" y="672.0943396226415"/>
      <point x="98.22641509433963" y="644.8867924528302"/>
      <point x="91.07547169811322" y="616.9811320754717" type="curve" smooth="yes"/>
      <point x="44.150943396226424" y="430.13207547169816"/>
      <point x="-9.26415094339622" y="217.47169811320754"/>
      <point x="-60.169811320754704" y="11.0" type="curve" smooth="yes"/>
      <point x="-62.169811320754704" y="4.0"/>
      <point x="-59.169811320754704" y="0.0"/>
    </contour>
    <contour>
      <point x="234.5849056603774" y="223.2075471698113" type="curve"/>
      <point x="228.83018867924534" y="197.3396226415094"/>
      <point x="212.5283018867925" y="134.9811320754717"/>
      <point x="205.92452830188685" y="107.41509433962263" type="curve" smooth="yes"/>
      <point x="191.43396226415098" y="47.90566037735848"/>
      <point x="229.15094339622644" y="9.339622641509433"/>
      <point x="297.1698113207548" y="0.0" type="curve"/>
      <point x="310.0188679245283" y="50.698113207547166"/>
      <point x="337.66037735849056" y="162.35849056603772"/>
      <point x="350.50943396226415" y="212.2075471698113" type="curve" smooth="yes"/>
      <point x="351.66037735849056" y="219.2075471698113"/>
      <point x="348.66037735849056" y="223.2075471698113"/>
      <point x="341.66037735849056" y="223.2075471698113" type="curve" smooth="yes"/>
      <point x="315.0754716981132" y="223.2075471698113"/>
      <point x="263.7169811320755" y="223.2075471698113"/>
    </contour>
    <contour>
      <point x="257.5094339622642" y="-73.66037735849056" type="curve"/>
      <point x="295.09433962264154" y="-73.66037735849056"/>
      <point x="365.09433962264154" y="-73.66037735849056"/>
      <point x="402.37735849056605" y="-73.66037735849056" type="curve" smooth="yes"/>
      <point x="423.0188679245283" y="-73.66037735849056"/>
      <point x="431.01886792452825" y="-69.9622641509434"/>
      <point x="449.5660377358491" y="-53.0188679245283" type="curve" smooth="yes"/>
      <point x="503.22641509433964" y="-2.2264150943396284"/>
      <point x="536.6792452830189" y="62.452830188679236"/>
      <point x="570.9811320754716" y="201.35849056603772" type="curve" smooth="yes"/>
      <point x="618.8867924528302" y="390.2830188679245"/>
      <point x="655.188679245283" y="539.188679245283"/>
      <point x="692.6415094339621" y="689.0" type="curve"/>
      <point x="694.6415094339621" y="696.0"/>
      <point x="691.6415094339621" y="700.0"/>
      <point x="684.6415094339621" y="700.0" type="curve" smooth="yes"/>
      <point x="614.3773584905659" y="700.0"/>
      <point x="505.94339622641513" y="700.0"/>
      <point x="462.84905660377365" y="700.0" type="curve"/>
      <point x="453.056603773585" y="660.8301886792453"/>
      <point x="444.96226415094344" y="628.4528301886793"/>
      <point x="435.1698113207548" y="589.2830188679245" type="curve" smooth="yes"/>
      <point x="433.1698113207548" y="582.2830188679245"/>
      <point x="436.1698113207548" y="578.2830188679245"/>
      <point x="443.1698113207548" y="578.2830188679245" type="curve" smooth="yes"/>
      <point x="463.98113207547175" y="578.2830188679245"/>
      <point x="511.7735849056604" y="578.2830188679245"/>
      <point x="558.9056603773586" y="578.2830188679245" type="curve"/>
      <point x="518.6603773584906" y="601.1698113207548" type="line"/>
      <point x="546.3962264150944" y="559.6981132075472" type="line"/>
      <point x="538.6037735849058" y="605.7358490566038" type="line"/>
      <point x="503.6981132075472" y="466.41509433962267"/>
      <point x="456.0377358490567" y="274.77358490566036"/>
      <point x="430.98113207547175" y="174.39622641509433" type="curve" smooth="yes"/>
      <point x="400.4716981132076" y="52.50943396226414"/>
      <point x="353.8679245283019" y="-4.132075471698119"/>
    </contour>
  </outline>
</glyph>
<glyph name="Lj" format="2">
  <advance width="600.0"/>
  <unicode hex="01C8"/>
  <outline>
    <contour>
      <point x="-43.67924528301886" y="0.0" type="curve" smooth="yes"/>
      <point x="295.3018867924528" y="0.0" type="line"/>
      <point x="303.54716981132077" y="87.62264150943395"/>
      <point x="302.79245283018867" y="121.71698113207546"/>
      <point x="233.00000000000003" y="121.71698113207546" type="curve" smooth="yes"/>
      <point x="110.90566037735846" y="121.71698113207546" type="line"/>
      <point x="157.11320754716976" y="308.5471698113207"/>
      <point x="206.01886792452828" y="502.1698113207547"/>
      <point x="252.2264150943396" y="689.0" type="curve"/>
      <point x="254.2264150943396" y="696.0"/>
      <point x="251.2264150943396" y="700.0"/>
      <point x="244.2264150943396" y="700.0" type="curve" smooth="yes"/>
      <point x="199.81132075471697" y="700.0"/>
      <point x="164.73584905660377" y="700.0"/>
      <point x="120.32075471698114" y="700.0" type="curve"/>
      <point x="113.16981132075473" y="672.0943396226415"/>
      <point x="106.71698113207547" y="644.8867924528302"/>
      <point x="99.56603773584906" y="616.9811320754717" type="curve" smooth="yes"/>
      <point x="52.64150943396228" y="430.13207547169816"/>
      <point x="-0.773584905660373" y="217.47169811320754"/>
      <point x="-51.67924528301886" y="11.0" type="curve" smooth="yes"/>
      <point x="-53.67924528301886" y="4.0"/>
      <point x="-50.67924528301886" y="0.0"/>
    </contour>
    <contour>
      <point x="238.6603773584906" y="223.2075471698113" type="curve"/>
      <point x="232.90566037735852" y="197.3396226415094"/>
      <point x="216.6037735849057" y="134.9811320754717"/>
      <point x="210.00000000000003" y="107.41509433962263" type="curve" smooth="yes"/>
      <point x="195.50943396226418" y="47.90566037735848"/>
      <point x="200.11320754716985" y="8.490566037735848"/>
      <point x="295.3018867924528" y="0.0" type="curve"/>
      <point x="308.1509433962264" y="50.698113207547166"/>
      <point x="335.79245283018867" y="162.35849056603772"/>
      <point x="348.64150943396226" y="212.2075471698113" type="curve" smooth="yes"/>
      <point x="349.7924528301887" y="219.2075471698113"/>
      <point x="346.79245283018867" y="223.2075471698113"/>
      <point x="339.79245283018867" y="223.2075471698113" type="curve" smooth="yes"/>
      <point x="313.2075471698113" y="223.2075471698113"/>
      <point x="267.7924528301887" y="223.2075471698113"/>
    </contour>
    <contour>
      <point x="632.1132075471698" y="537.8867924528302" type="curve" smooth="yes"/>
      <point x="539.4716981132076" y="537.8867924528302"/>
      <point x="408.1886792452831" y="537.8867924528302"/>
      <point x="372.45283018867923" y="537.8867924528302" type="curve"/>
      <point x="362.66037735849056" y="498.7169811320755"/>
      <point x="353.0188679245283" y="460.54716981132077"/>
      <point x="343.22641509433964" y="421.37735849056605" type="curve" smooth="yes"/>
      <point x="342.0754716981132" y="414.37735849056605"/>
      <point x="345.0754716981132" y="410.37735849056605"/>
      <point x="352.07547169811323" y="410.37735849056605" type="curve" smooth="yes"/>
      <point x="374.8490566037736" y="410.37735849056605"/>
      <point x="441.96226415094344" y="410.37735849056605"/>
      <point x="464.83018867924534" y="410.37735849056605" type="curve"/>
      <point x="476.8301886792453" y="410.37735849056605" type="line"/>
      <point x="443.62264150943395" y="279.2452830188679"/>
      <point x="410.41509433962267" y="147.2641509433962"/>
      <point x="366.6037735849057" y="-27.830188679245282" type="curve" smooth="yes"/>
      <point x="359.3962264150943" y="-57.35849056603776"/>
      <point x="348.73584905660374" y="-78.22641509433963"/>
      <point x="334.3207547169811" y="-92.73584905660378" type="curve"/>
      <point x="317.5094339622642" y="-108.9433962264151"/>
      <point x="294.54716981132077" y="-115.54716981132077"/>
      <point x="265.5849056603774" y="-115.54716981132077" type="curve" smooth="yes"/>
      <point x="223.64150943396223" y="-115.54716981132077"/>
      <point x="197.49056603773585" y="-108.54716981132079"/>
      <point x="169.33962264150944" y="-97.9433962264151" type="curve"/>
      <point x="150.54716981132074" y="-97.9433962264151" type="line"/>
      <point x="140.60377358490567" y="-138.9622641509434"/>
      <point x="131.1132075471698" y="-169.33962264150944"/>
      <point x="121.32075471698114" y="-210.35849056603774" type="curve" smooth="yes"/>
      <point x="120.32075471698113" y="-213.50943396226418"/>
      <point x="120.32075471698114" y="-216.35849056603772"/>
      <point x="122.16981132075472" y="-218.35849056603774" type="curve" smooth="yes"/>
      <point x="133.16981132075472" y="-233.2075471698113"/>
      <point x="172.41509433962267" y="-250.0"/>
      <point x="240.64150943396226" y="-250.0" type="curve" smooth="yes"/>
      <point x="386.50943396226415" y="-250.0"/>
      <point x="455.7169811320755" y="-203.50943396226415"/>
      <point x="504.9056603773585" y="-13.547169811320757" type="curve" smooth="yes"/>
      <point x="552.867924528302" y="173.20754716981133"/>
      <point x="597.1698113207548" y="352.81132075471703"/>
      <point x="640.2641509433962" y="526.8867924528302" type="curve" smooth="yes"/>
      <point x="642.1132075471698" y="533.0377358490566"/>
      <point x="638.2641509433962" y="537.8867924528302"/>
    </contour>
    <contour>
      <point x="552.0566037735848" y="795.0566037735849" type="curve"/>
      <point x="519.7735849056603" y="666.622641509434" type="line" smooth="yes"/>
      <point x="517.7735849056603" y="659.622641509434"/>
      <point x="520.7735849056603" y="655.622641509434"/>
      <point x="527.7735849056603" y="655.622641509434" type="curve" smooth="yes"/>
      <point x="578.7924528301886" y="655.622641509434"/>
      <point x="639.1509433962264" y="655.622641509434"/>
      <point x="690.1698113207547" y="655.622641509434" type="curve"/>
      <point x="722.4528301886792" y="784.0566037735849" type="line" smooth="yes"/>
      <point x="724.4528301886792" y="791.0566037735849"/>
      <point x="721.4528301886792" y="795.0566037735849"/>
      <point x="714.4528301886792" y="795.0566037735849" type="curve" smooth="yes"/>
      <point x="663.4339622641509" y="795.0566037735849"/>
      <point x="603.0754716981131" y="795.0566037735849"/>
    </contour>
  </outline>
</glyph>
<glyph name="verticallinemod" format="2">
  <advance width="600.0"/>
  <unicode hex="02C8"/>
  <outline>
    <contour>
      <point x="402.3207547169811" y="438.50943396226415" type="curve"/>
      <point x="477.1698113207547" y="737.0" type="line" smooth="yes"/>
      <point x="479.1698113207547" y="746.0"/>
      <point x="476.1698113207547" y="750.0"/>
      <point x="470.1698113207547" y="750.0" type="curve" smooth="yes"/>
      <point x="424.0" y="750.0"/>
      <point x="395.4150943396226" y="750.0"/>
      <point x="359.4339622641509" y="750.0" type="curve"/>
      <point x="350.4339622641509" y="714.0"/>
      <point x="343.2830188679245" y="683.0"/>
      <point x="334.2830188679245" y="648.0" type="curve" smooth="yes"/>
      <point x="283.88679245283015" y="449.50943396226415" type="line" smooth="yes"/>
      <point x="281.88679245283015" y="442.50943396226415"/>
      <point x="287.73584905660374" y="438.50943396226415"/>
      <point x="293.73584905660374" y="438.50943396226415" type="curve" smooth="yes"/>
      <point x="331.2641509433962" y="438.50943396226415"/>
      <point x="364.18867924528297" y="438.50943396226415"/>
    </contour>
  </outline>
</glyph>
<glyph name="circumflexcomb" format="2">
  <unicode hex="0302"/>
  <anchor x="68.84905660377359" y="547.188679245283" name="_top"/>
  <anchor x="289.4339622641509" y="712.0" name="side"/>
  <anchor x="122.0" y="760.3396226415094" name="top"/>
  <outline>
    <contour>
      <point x="86.67924528301887" y="813.0188679245283" type="curve"/>
      <point x="52.075471698113205" y="781.0188679245283"/>
      <point x="-54.03773584905659" y="684.0188679245283"/>
      <point x="-92.79245283018867" y="648.0188679245283" type="curve" smooth="yes"/>
      <point x="-114.24528301886792" y="628.0188679245283"/>
      <point x="-117.39622641509433" y="625.8679245283018"/>
      <point x="-118.39622641509433" y="620.0188679245283" type="curve" smooth="yes"/>
      <point x="-119.39622641509433" y="615.0188679245283"/>
      <point x="-117.54716981132074" y="611.0188679245283"/>
      <point x="-109.54716981132074" y="611.0188679245283" type="curve" smooth="yes"/>
      <point x="-9.811320754716991" y="611.0188679245283" type="line"/>
      <point x="26.207547169811313" y="639.5849056603773"/>
      <point x="67.13207547169812" y="673.6037735849056"/>
      <point x="136.0188679245283" y="730.9811320754717" type="curve"/>
      <point x="81.37735849056605" y="708.2830188679245" type="line"/>
      <point x="143.9056603773585" y="708.2830188679245" type="line"/>
      <point x="100.01886792452831" y="729.2830188679245" type="line"/>
      <point x="142.33962264150944" y="671.0566037735849"/>
      <point x="167.811320754717" y="636.2264150943396"/>
      <point x="177.7169811320755" y="622.0188679245283" type="curve" smooth="yes"/>
      <point x="184.7169811320755" y="613.0188679245283"/>
      <point x="189.7169811320755" y="611.0188679245283"/>
      <point x="204.7169811320755" y="611.0188679245283" type="curve" smooth="yes"/>
      <point x="238.54716981132077" y="611.0188679245283"/>
      <point x="269.3207547169811" y="611.0188679245283"/>
      <point x="303.1509433962264" y="611.0188679245283" type="curve"/>
      <point x="268.9433962264151" y="669.0188679245283"/>
      <point x="210.83018867924528" y="768.0188679245283"/>
      <point x="197.37735849056602" y="791.0188679245283" type="curve" smooth="yes"/>
      <point x="185.9245283018868" y="810.0188679245283"/>
      <point x="181.9245283018868" y="813.0188679245283"/>
      <point x="171.9245283018868" y="813.0188679245283" type="curve" smooth="yes"/>
      <point x="143.79245283018867" y="813.0188679245283"/>
      <point x="114.81132075471699" y="813.0188679245283"/>
    </contour>
  </outline>
</glyph>
<glyph name="ringcomb" format="2">
  <unicode hex="030A"/>
  <anchor x="69.84905660377359" y="548.8867924528302" name="_top"/>
  <anchor x="126.50943396226415" y="775.5283018867924" name="top"/>
  <outline>
    <contour>
      <point x="134.75471698113208" y="864.6792452830189" type="curve" smooth="yes"/>
      <point x="55.26415094339623" y="864.6792452830189"/>
      <point x="4.471698113207555" y="830.622641509434"/>
      <point x="-14.773584905660368" y="759.188679245283" type="curve" smooth="yes"/>
      <point x="-22.471698113207538" y="730.6415094339623" type="line" smooth="yes"/>
      <point x="-42.566037735849044" y="658.2075471698113"/>
      <point x="-4.716981132075466" y="597.9811320754717"/>
      <point x="82.8679245283019" y="597.9811320754717" type="curve" smooth="yes"/>
      <point x="172.3396226415094" y="597.9811320754717"/>
      <point x="223.88679245283018" y="627.7358490566038"/>
      <point x="244.83018867924528" y="704.3207547169811" type="curve" smooth="yes"/>
      <point x="252.52830188679243" y="732.8679245283018" type="line" smooth="yes"/>
      <point x="270.47169811320754" y="797.4528301886792"/>
      <point x="232.52830188679243" y="864.6792452830189"/>
    </contour>
    <contour>
      <point x="129.9056603773585" y="787.8679245283018" type="curve" smooth="yes"/>
      <point x="146.81132075471697" y="787.8679245283018"/>
      <point x="160.56603773584905" y="783.7169811320755"/>
      <point x="166.86792452830187" y="775.1132075471698" type="curve"/>
      <point x="172.8679245283019" y="766.9622641509434"/>
      <point x="172.0188679245283" y="753.811320754717"/>
      <point x="168.8679245283019" y="739.5094339622641" type="curve" smooth="yes"/>
      <point x="164.56603773584905" y="722.3018867924528" type="line" smooth="yes"/>
      <point x="156.41509433962264" y="690.0"/>
      <point x="135.05660377358492" y="674.9433962264151"/>
      <point x="101.0" y="674.9433962264151" type="curve" smooth="yes"/>
      <point x="84.39622641509433" y="674.9433962264151"/>
      <point x="71.64150943396226" y="677.0943396226415"/>
      <point x="65.33962264150942" y="685.3962264150944" type="curve"/>
      <point x="58.18867924528302" y="693.6981132075472"/>
      <point x="58.0377358490566" y="707.8490566037735"/>
      <point x="62.0377358490566" y="722.3018867924528" type="curve" smooth="yes"/>
      <point x="66.33962264150944" y="739.5094339622641" type="line" smooth="yes"/>
      <point x="74.49056603773585" y="772.8113207547169"/>
      <point x="93.30188679245282" y="787.8679245283018"/>
    </contour>
  </outline>
</glyph>
<glyph name="Germandbls" format="2">
  <advance width="600.0"/>
  <unicode hex="1E9E"/>
  <outline>
    <contour>
      <point x="146.49056603773585" y="0.0" type="curve"/>
      <point x="153.7924528301887" y="29.20754716981132"/>
      <point x="161.7924528301887" y="62.905660377358494"/>
      <point x="170.64150943396226" y="98.0" type="curve"/>
      <point x="207.8490566037736" y="244.83018867924528"/>
      <point x="244.05660377358492" y="392.81132075471703"/>
      <point x="281.26415094339626" y="539.6415094339623" type="curve"/>
      <point x="289.66037735849056" y="573.2264150943396"/>
      <point x="297.9056603773585" y="605.2075471698114"/>
      <point x="306.3018867924528" y="638.7924528301887" type="curve"/>
      <point x="319.0943396226415" y="654.7358490566038" type="line"/>
      <point x="166.60377358490567" y="654.7358490566038" type="line"/>
      <point x="113.15094339622642" y="440.77358490566036"/>
      <point x="58.69811320754718" y="224.9622641509434"/>
      <point x="5.245283018867937" y="11.0" type="curve" smooth="yes"/>
      <point x="3.245283018867937" y="4.0"/>
      <point x="6.245283018867937" y="0.0"/>
      <point x="13.245283018867937" y="0.0" type="curve" smooth="yes"/>
      <point x="57.66037735849058" y="0.0"/>
      <point x="102.07547169811318" y="0.0"/>
    </contour>
    <contour>
      <point x="337.7547169811321" y="121.35849056603772" type="curve" smooth="yes"/>
      <point x="304.49056603773585" y="121.35849056603772"/>
      <point x="283.37735849056605" y="128.56603773584902"/>
      <point x="262.9622641509434" y="143.88679245283018" type="curve"/>
      <point x="244.1698113207547" y="143.88679245283018" type="line"/>
      <point x="234.22641509433961" y="105.26415094339622"/>
      <point x="225.28778467962263" y="67.96007656733585"/>
      <point x="215.33962264150944" y="29.32075471698114" type="curve" smooth="yes"/>
      <point x="214.33962264150944" y="25.320754716981135"/>
      <point x="214.3396226415094" y="24.16981132075472"/>
      <point x="216.3396226415094" y="22.16981132075472" type="curve" smooth="yes"/>
      <point x="235.15094339622644" y="3.9056603773584913"/>
      <point x="276.0566037735849" y="-8.849056603773585"/>
      <point x="316.77358490566036" y="-8.849056603773585" type="curve" smooth="yes"/>
      <point x="431.7924528301887" y="-8.849056603773585"/>
      <point x="502.7924528301887" y="44.698113207547166"/>
      <point x="529.8867924528303" y="153.9245283018868" type="curve" smooth="yes"/>
      <point x="534.5849056603774" y="171.01886792452828" type="line" smooth="yes"/>
      <point x="552.8301886792453" y="238.90566037735846"/>
      <point x="539.4716981132076" y="280.66037735849056"/>
      <point x="487.41509433962267" y="320.66037735849056" type="curve" smooth="yes"/>
      <point x="462.1509433962264" y="339.86792452830184" type="line" smooth="yes"/>
      <point x="437.49056603773585" y="358.622641509434"/>
      <point x="431.03773584905656" y="368.9811320754717"/>
      <point x="433.9433962264151" y="381.8490566037736" type="curve" smooth="yes"/>
      <point x="437.3962264150943" y="393.66037735849056"/>
      <point x="447.45283018867923" y="403.71698113207543"/>
      <point x="486.0188679245283" y="431.52830188679246" type="curve" smooth="yes"/>
      <point x="522.7358490566037" y="457.49056603773585" type="line" smooth="yes"/>
      <point x="569.1916351392" y="490.0394762365585"/>
      <point x="589.1304725285887" y="521.8461630465962"/>
      <point x="605.1509433962265" y="585.6415094339623" type="curve" smooth="yes"/>
      <point x="631.4905660377359" y="689.0" type="line"/>
      <point x="633.4905660377359" y="696.0"/>
      <point x="630.4905660377359" y="700.0"/>
      <point x="623.4905660377359" y="700.0" type="curve"/>
      <point x="465.45283018867923" y="700.0"/>
      <point x="308.2641509433962" y="700.0"/>
      <point x="150.22641509433964" y="700.0" type="curve"/>
      <point x="140.43396226415095" y="660.9811320754718"/>
      <point x="131.33962264150944" y="626.9056603773586"/>
      <point x="121.54716981132077" y="587.8867924528302" type="curve" smooth="yes"/>
      <point x="119.54716981132077" y="580.8867924528302"/>
      <point x="122.54716981132077" y="576.8867924528302"/>
      <point x="129.54716981132077" y="576.8867924528302" type="curve" smooth="yes"/>
      <point x="250.02254613835848" y="576.8867924528302"/>
      <point x="370.1384860195472" y="576.8867924528302"/>
      <point x="490.35849056603774" y="576.8867924528302" type="curve"/>
      <point x="465.6981132075472" y="593.2830188679245" type="line"/>
      <point x="458.1886792452831" y="543.0566037735849" type="line"/>
      <point x="512.1132075471697" y="581.3018867924528" type="line"/>
      <point x="478.37735849056605" y="561.132075471698"/>
      <point x="428.07547169811323" y="537.7924528301887"/>
      <point x="401.8679245283019" y="518.8867924528302" type="curve" smooth="yes"/>
      <point x="385.64150943396226" y="507.2830188679245" type="line" smooth="yes"/>
      <point x="346.0188679245283" y="478.16981132075466"/>
      <point x="320.1698113207547" y="444.77358490566036"/>
      <point x="313.1698113207547" y="413.4150943396226" type="curve" smooth="yes"/>
      <point x="306.22641509433964" y="385.49056603773585" type="line" smooth="yes"/>
      <point x="294.9811320754717" y="340.3018867924528"/>
      <point x="308.4339622641509" y="302.9056603773585"/>
      <point x="346.6792452830189" y="273.811320754717" type="curve" smooth="yes"/>
      <point x="371.0943396226415" y="255.30188679245282" type="line" smooth="yes"/>
      <point x="411.66037735849056" y="223.9433962264151"/>
      <point x="417.47169811320754" y="211.32075471698113"/>
      <point x="408.0188679245283" y="175.2075471698113" type="curve"/>
      <point x="403.41509433962267" y="158.79245283018867"/>
      <point x="396.90566037735846" y="144.9811320754717"/>
      <point x="384.39622641509436" y="135.62264150943395" type="curve" smooth="yes"/>
      <point x="373.5849056603774" y="126.2641509433962"/>
      <point x="358.1698113207547" y="121.35849056603772"/>
    </contour>
  </outline>
</glyph>
<glyph name="trademark" format="2">
  <advance width="600.0"/>
  <unicode hex="2122"/>
  <outline>
    <contour>
      <point x="118.50943396226415" y="700.0" type="line"/>
      <point x="111.26415094339623" y="671.1698113207548"/>
      <point x="105.8679245283019" y="650.2830188679245"/>
      <point x="98.62264150943398" y="621.4528301886793" type="curve" smooth="yes"/>
      <point x="96.62264150943398" y="614.4528301886793"/>
      <point x="99.62264150943398" y="610.4528301886793"/>
      <point x="106.62264150943398" y="610.4528301886793" type="curve" smooth="yes"/>
      <point x="336.8867924528302" y="610.4528301886793" type="line"/>
      <point x="344.1320754716981" y="639.2830188679245"/>
      <point x="349.52830188679246" y="660.1698113207548"/>
      <point x="356.77358490566036" y="689.0" type="curve" smooth="yes"/>
      <point x="358.77358490566036" y="696.0"/>
      <point x="355.77358490566036" y="700.0"/>
      <point x="348.77358490566036" y="700.0" type="curve"/>
    </contour>
    <contour>
      <point x="199.18867924528303" y="350.0" type="curve"/>
      <point x="207.18867924528303" y="382.0"/>
      <point x="215.18867924528303" y="415.0"/>
      <point x="224.18867924528303" y="450.0" type="curve" smooth="yes"/>
      <point x="237.9433962264151" y="505.5660377358491"/>
      <point x="243.15094339622647" y="524.6981132075472"/>
      <point x="256.9056603773585" y="579.867924528302" type="curve"/>
      <point x="259.6037735849057" y="589.8113207547169"/>
      <point x="260.6037735849057" y="592.9622641509434"/>
      <point x="262.4528301886793" y="602.0566037735849" type="curve"/>
      <point x="281.0377358490566" y="675.1509433962265" type="line"/>
      <point x="185.0943396226415" y="675.1509433962265" type="line"/>
      <point x="158.24528301886792" y="570.1509433962265"/>
      <point x="132.0943396226415" y="466.0"/>
      <point x="106.09433962264151" y="361.0" type="curve" smooth="yes"/>
      <point x="104.09433962264151" y="354.0"/>
      <point x="107.09433962264151" y="350.0"/>
      <point x="114.09433962264151" y="350.0" type="curve" smooth="yes"/>
      <point x="143.9245283018868" y="350.0"/>
      <point x="169.35849056603774" y="350.0"/>
    </contour>
    <contour>
      <point x="392.33962264150944" y="350.0" type="curve"/>
      <point x="396.9433962264151" y="369.2641509433962"/>
      <point x="401.5471698113207" y="387.6792452830189"/>
      <point x="407.0" y="406.9433962264151" type="curve" smooth="yes"/>
      <point x="412.75471698113205" y="430.50943396226415"/>
      <point x="416.6603773584906" y="491.0377358490566"/>
      <point x="423.377358490566" y="614.8301886792453" type="curve"/>
      <point x="393.1320754716981" y="585.6792452830189" type="line"/>
      <point x="461.35849056603774" y="585.6792452830189" type="line"/>
      <point x="432.77358490566036" y="614.6792452830189" type="line"/>
      <point x="435.9245283018868" y="520.8867924528302"/>
      <point x="438.77358490566036" y="469.377358490566"/>
      <point x="441.62264150943395" y="411.1320754716981" type="curve" smooth="yes"/>
      <point x="441.62264150943395" y="405.52830188679246"/>
      <point x="442.92452830188677" y="404.52830188679246"/>
      <point x="448.22641509433964" y="404.52830188679246" type="curve" smooth="yes"/>
      <point x="457.2264150943396" y="404.52830188679246"/>
      <point x="465.0754716981132" y="404.52830188679246"/>
      <point x="473.1698113207547" y="404.52830188679246" type="curve"/>
      <point x="507.1698113207547" y="464.22641509433964"/>
      <point x="541.622641509434" y="524.8301886792453"/>
      <point x="589.377358490566" y="614.5283018867924" type="curve"/>
      <point x="546.4905660377359" y="585.6792452830189" type="line"/>
      <point x="615.9245283018868" y="585.6792452830189" type="line"/>
      <point x="598.4716981132075" y="614.8301886792453" type="line"/>
      <point x="537.6981132075473" y="479.20754716981133"/>
      <point x="518.0566037735849" y="435.20754716981133"/>
      <point x="511.7547169811321" y="409.1509433962264" type="curve" smooth="yes"/>
      <point x="508.1509433962264" y="393.433962264151"/>
      <point x="503.54716981132077" y="376.7169811320755"/>
      <point x="499.7924528301887" y="361.0" type="curve" smooth="yes"/>
      <point x="497.7924528301887" y="354.0"/>
      <point x="501.64150943396237" y="350.0"/>
      <point x="507.7924528301887" y="350.0" type="curve" smooth="yes"/>
      <point x="534.2264150943397" y="350.0"/>
      <point x="561.3584905660377" y="350.0"/>
      <point x="587.7924528301887" y="350.0" type="curve"/>
      <point x="595.4905660377359" y="380.64150943396226"/>
      <point x="603.1886792452831" y="411.2830188679245"/>
      <point x="610.7358490566038" y="441.92452830188677" type="curve" smooth="yes"/>
      <point x="632.0377358490566" y="524.2830188679245"/>
      <point x="652.9433962264151" y="608.7547169811321"/>
      <point x="672.7924528301887" y="689.0" type="curve" smooth="yes"/>
      <point x="674.7924528301887" y="696.0"/>
      <point x="671.7924528301887" y="700.0"/>
      <point x="664.7924528301887" y="700.0" type="curve"/>
      <point x="637.0566037735849" y="700.0"/>
      <point x="599.2264150943396" y="700.0"/>
      <point x="571.4905660377358" y="700.0" type="curve"/>
      <point x="545.3396226415094" y="641.2641509433962"/>
      <point x="524.867924528302" y="598.7358490566038"/>
      <point x="486.6037735849057" y="518.9811320754717" type="curve"/>
      <point x="528.6415094339623" y="547.8301886792452" type="line"/>
      <point x="461.3207547169811" y="547.8301886792452" type="line"/>
      <point x="486.66037735849056" y="517.9811320754717" type="line"/>
      <point x="491.45283018867923" y="599.7358490566038"/>
      <point x="493.5471698113207" y="628.5094339622641"/>
      <point x="495.0943396226415" y="689.5471698113207" type="curve" smooth="yes"/>
      <point x="495.79245283018867" y="696.1509433962265"/>
      <point x="492.64150943396226" y="700.0"/>
      <point x="486.33962264150944" y="700.0" type="curve" smooth="yes"/>
      <point x="456.75471698113205" y="700.0"/>
      <point x="418.9245283018868" y="700.0"/>
      <point x="389.3396226415095" y="700.0" type="curve"/>
      <point x="382.3396226415095" y="671.1509433962265"/>
      <point x="374.4905660377359" y="642.3018867924528"/>
      <point x="367.4905660377359" y="613.4528301886793" type="curve" smooth="yes"/>
      <point x="346.4905660377359" y="529.3018867924528"/>
      <point x="325.3396226415095" y="445.1509433962264"/>
      <point x="304.3396226415095" y="361.0" type="curve" smooth="yes"/>
      <point x="302.3396226415095" y="354.0"/>
      <point x="305.3396226415095" y="350.0"/>
      <point x="312.3396226415095" y="350.0" type="curve" smooth="yes"/>
      <point x="338.7735849056604" y="350.0"/>
      <point x="365.9056603773585" y="350.0"/>
    </contour>
  </outline>
</glyph>
<glyph name="arrowupdown" format="2">
  <advance width="600.0"/>
  <unicode hex="2195"/>
  <outline>
    <contour>
      <point x="477.66037735849056" y="702.0377358490566" type="curve" smooth="yes"/>
      <point x="470.9622641509434" y="714.1320754716982"/>
      <point x="466.9622641509434" y="716.9811320754717"/>
      <point x="451.5660377358491" y="716.9811320754717" type="curve" smooth="yes"/>
      <point x="420.9811320754717" y="716.9811320754717"/>
      <point x="385.7547169811321" y="716.9811320754717"/>
      <point x="351.67924528301893" y="716.9811320754717" type="curve"/>
      <point x="259.7735849056604" y="630.5849056603773"/>
      <point x="166.18867924528303" y="538.5094339622641"/>
      <point x="70.13207547169812" y="445.9622641509434" type="curve" smooth="yes"/>
      <point x="56.83018867924529" y="432.9622641509434"/>
      <point x="55.22641509433963" y="429.811320754717"/>
      <point x="54.07547169811321" y="424.811320754717" type="curve" smooth="yes"/>
      <point x="53.07547169811321" y="419.9622641509434"/>
      <point x="55.924528301886795" y="416.9622641509434"/>
      <point x="61.22641509433963" y="416.9622641509434" type="curve" smooth="yes"/>
      <point x="101.39622641509433" y="416.9622641509434"/>
      <point x="146.71698113207546" y="416.9622641509434"/>
      <point x="187.188679245283" y="416.9622641509434" type="curve"/>
      <point x="303.79245283018867" y="538.8490566037735"/>
      <point x="343.49056603773585" y="584.8301886792453"/>
      <point x="405.3018867924528" y="659.8679245283018" type="curve"/>
      <point x="361.90566037735846" y="634.5283018867924" type="line"/>
      <point x="433.3018867924528" y="634.5283018867924" type="line"/>
      <point x="401.3018867924528" y="659.8679245283018" type="line"/>
      <point x="426.1698113207547" y="584.6792452830189"/>
      <point x="445.54716981132077" y="539.3018867924528"/>
      <point x="499.566037735849" y="416.9622641509434" type="curve"/>
      <point x="540.0377358490566" y="416.9622641509434"/>
      <point x="572.2641509433962" y="416.9622641509434"/>
      <point x="612.132075471698" y="416.9622641509434" type="curve" smooth="yes"/>
      <point x="617.5849056603773" y="416.9622641509434"/>
      <point x="622.2830188679245" y="419.9622641509434"/>
      <point x="623.4339622641509" y="424.9622641509434" type="curve" smooth="yes"/>
      <point x="624.4339622641509" y="430.1132075471698"/>
      <point x="624.9811320754717" y="433.41509433962267"/>
      <point x="618.1320754716982" y="445.66037735849056" type="curve" smooth="yes"/>
      <point x="567.0188679245283" y="539.811320754717"/>
      <point x="505.73584905660374" y="652.5094339622641"/>
    </contour>
    <contour>
      <point x="266.7358490566038" y="374.1320754716981" type="curve" smooth="yes"/>
      <point x="257.8867924528302" y="335.49056603773585" type="line" smooth="yes"/>
      <point x="255.47169811320754" y="324.98113207547163"/>
      <point x="246.47169811320757" y="238.0943396226415"/>
      <point x="236.35849056603774" y="162.2641509433962" type="curve"/>
      <point x="243.35849056603774" y="162.2641509433962"/>
      <point x="259.45283018867923" y="162.2641509433962"/>
      <point x="274.9433962264151" y="162.2641509433962" type="curve" smooth="yes"/>
      <point x="282.79245283018867" y="162.2641509433962"/>
      <point x="287.64150943396226" y="165.41509433962264"/>
      <point x="292.33962264150944" y="174.1132075471698" type="curve" smooth="yes"/>
      <point x="323.4339622641509" y="232.37735849056602"/>
      <point x="373.0943396226415" y="324.98113207547163"/>
      <point x="375.50943396226415" y="335.49056603773585" type="curve" smooth="yes"/>
      <point x="384.35849056603774" y="374.1320754716981" type="line" smooth="yes"/>
      <point x="387.37735849056605" y="386.9056603773585"/>
      <point x="394.92452830188677" y="469.1320754716981"/>
      <point x="403.49056603773585" y="545.8679245283018" type="curve"/>
      <point x="396.49056603773585" y="545.8679245283018"/>
      <point x="380.39622641509436" y="545.8679245283018"/>
      <point x="364.9056603773585" y="545.8679245283018" type="curve" smooth="yes"/>
      <point x="357.0566037735849" y="545.8679245283018"/>
      <point x="352.0566037735849" y="542.7169811320755"/>
      <point x="347.50943396226415" y="534.0188679245283" type="curve" smooth="yes"/>
      <point x="317.7169811320755" y="475.35849056603774"/>
      <point x="269.75471698113205" y="386.9056603773585"/>
    </contour>
    <contour>
      <point x="164.18867924528303" y="7.30188679245283" type="curve" smooth="yes"/>
      <point x="170.18867924528305" y="-5.094339622641508"/>
      <point x="175.33962264150946" y="-7.641509433962263"/>
      <point x="190.73584905660377" y="-7.641509433962263" type="curve" smooth="yes"/>
      <point x="221.16981132075475" y="-7.641509433962263"/>
      <point x="256.3962264150943" y="-7.641509433962263"/>
      <point x="290.1698113207547" y="-7.641509433962263" type="curve"/>
      <point x="380.47169811320754" y="77.54716981132076"/>
      <point x="474.0566037735849" y="169.47169811320754"/>
      <point x="571.7169811320755" y="262.1698113207547" type="curve" smooth="yes"/>
      <point x="585.3207547169811" y="275.3207547169811"/>
      <point x="586.622641509434" y="278.3207547169811"/>
      <point x="587.7735849056603" y="283.3207547169811" type="curve" smooth="yes"/>
      <point x="588.7735849056603" y="288.1698113207547"/>
      <point x="585.9245283018868" y="291.1698113207547"/>
      <point x="580.622641509434" y="291.1698113207547" type="curve" smooth="yes"/>
      <point x="540.4528301886793" y="291.1698113207547"/>
      <point x="491.4339622641509" y="291.1698113207547"/>
      <point x="450.9622641509434" y="291.1698113207547" type="curve"/>
      <point x="335.5660377358491" y="170.9433962264151"/>
      <point x="294.66037735849056" y="124.0566037735849"/>
      <point x="232.30188679245282" y="49.47169811320754" type="curve"/>
      <point x="276.54716981132077" y="74.81132075471697" type="line"/>
      <point x="205.1509433962264" y="74.81132075471697" type="line"/>
      <point x="236.30188679245282" y="49.47169811320754" type="line"/>
      <point x="211.98113207547172" y="124.2075471698113"/>
      <point x="191.54716981132074" y="170.79245283018867"/>
      <point x="138.58490566037733" y="291.1698113207547" type="curve"/>
      <point x="98.11320754716981" y="291.1698113207547"/>
      <point x="69.58490566037734" y="291.1698113207547"/>
      <point x="29.716981132075475" y="291.1698113207547" type="curve" smooth="yes"/>
      <point x="24.264150943396228" y="291.1698113207547"/>
      <point x="19.566037735849058" y="288.1698113207547"/>
      <point x="18.415094339622645" y="283.1698113207547" type="curve" smooth="yes"/>
      <point x="17.415094339622645" y="278.0188679245283"/>
      <point x="16.86792452830189" y="274.7169811320755"/>
      <point x="23.716981132075475" y="262.47169811320754" type="curve" smooth="yes"/>
      <point x="74.22641509433963" y="169.22641509433961"/>
      <point x="134.60377358490567" y="57.73584905660378"/>
    </contour>
  </outline>
</glyph>
<glyph name="bracketangleleft" format="2">
  <advance width="600.0"/>
  <unicode hex="27E8"/>
  <outline>
    <contour>
      <point x="402.49056603773585" y="26.79245283018868" type="line"/>
      <point x="361.79245283018867" y="137.94339622641508"/>
      <point x="315.9433962264151" y="258.54716981132077"/>
      <point x="286.9433962264151" y="346.0" type="curve"/>
      <point x="359.3962264150943" y="435.0"/>
      <point x="499.4905660377358" y="595.2075471698113"/>
      <point x="580.6415094339624" y="693.2075471698113" type="curve"/>
      <point x="585.3396226415095" y="712.0" type="line"/>
      <point x="540.4716981132076" y="712.0"/>
      <point x="487.2641509433962" y="712.0"/>
      <point x="442.54716981132077" y="712.0" type="curve" smooth="yes"/>
      <point x="426.54716981132077" y="712.0"/>
      <point x="420.54716981132077" y="707.0"/>
      <point x="411.54716981132077" y="697.0" type="curve" smooth="yes"/>
      <point x="374.94339622641513" y="653.9433962264152"/>
      <point x="250.24528301886792" y="511.0377358490566"/>
      <point x="164.7924528301887" y="411.9811320754717" type="curve"/>
      <point x="161.7924528301887" y="398.9811320754717"/>
      <point x="144.00000000000003" y="330.1132075471698"/>
      <point x="141.00000000000003" y="317.1132075471698" type="curve" smooth="yes"/>
      <point x="139.00000000000003" y="309.1132075471698"/>
      <point x="140.00000000000003" y="305.1132075471698"/>
      <point x="144.00000000000003" y="293.1132075471698" type="curve" smooth="yes"/>
      <point x="165.0" y="230.81132075471697"/>
      <point x="228.6981132075472" y="59.60377358490567"/>
      <point x="242.54716981132077" y="24.0" type="curve" smooth="yes"/>
      <point x="247.39622641509436" y="10.0"/>
      <point x="251.54716981132077" y="8.0"/>
      <point x="264.54716981132077" y="8.0" type="curve" smooth="yes"/>
      <point x="309.811320754717" y="8.0"/>
      <point x="351.92452830188677" y="8.0"/>
      <point x="397.79245283018867" y="8.0" type="curve"/>
    </contour>
  </outline>
</glyph>
<glyph name="ampersand_ampersand_ampersand.code" format="2">
  <advance width="1800.0"/>
  <outline>
    <contour>
      <point x="374.8301886792453" y="454.1320754716981" type="curve" smooth="yes"/>
      <point x="361.811320754717" y="481.6792452830189"/>
      <point x="363.4150943396226" y="504.5849056603773"/>
      <point x="368.71698113207543" y="528.6415094339624" type="curve" smooth="yes"/>
      <point x="374.01886792452825" y="546.8490566037736"/>
      <point x="381.62264150943395" y="562.0566037735849"/>
      <point x="392.64150943396226" y="571.0188679245283" type="curve"/>
      <point x="409.2075471698113" y="583.5283018867924"/>
      <point x="434.7169811320755" y="591.0754716981132"/>
      <point x="472.9811320754717" y="591.0754716981132" type="curve" smooth="yes"/>
      <point x="524.5849056603773" y="591.0754716981132"/>
      <point x="567.377358490566" y="584.4716981132076"/>
      <point x="610.622641509434" y="570.0188679245283" type="curve"/>
      <point x="629.4150943396227" y="570.0188679245283" type="line"/>
      <point x="638.5094339622642" y="604.2452830188679"/>
      <point x="644.9056603773586" y="634.7735849056604"/>
      <point x="654.0" y="669.0" type="curve" smooth="yes"/>
      <point x="656.0" y="676.6981132075472"/>
      <point x="654.1509433962264" y="681.0943396226414"/>
      <point x="646.6037735849058" y="684.9433962264151" type="curve" smooth="yes"/>
      <point x="624.6037735849056" y="696.2452830188679"/>
      <point x="572.6603773584907" y="708.8490566037735"/>
      <point x="484.37735849056605" y="708.8490566037735" type="curve" smooth="yes"/>
      <point x="345.79245283018867" y="708.8490566037735"/>
      <point x="271.49056603773585" y="665.7358490566038"/>
      <point x="247.8490566037736" y="568.9056603773586" type="curve" smooth="yes"/>
      <point x="243.45283018867926" y="551.1698113207548" type="line" smooth="yes"/>
      <point x="229.20754716981133" y="493.22641509433964"/>
      <point x="228.7169811320755" y="439.33962264150944"/>
      <point x="274.9056603773585" y="349.39622641509436" type="curve" smooth="yes"/>
      <point x="327.6981132075472" y="246.54716981132074"/>
      <point x="395.1698113207547" y="113.37735849056604"/>
      <point x="421.2641509433962" y="62.98113207547169" type="curve" smooth="yes"/>
      <point x="451.8490566037736" y="4.452830188679243"/>
      <point x="491.5283018867925" y="-10.0"/>
      <point x="570.6981132075472" y="-10.0" type="curve" smooth="yes"/>
      <point x="633.2452830188679" y="-10.0"/>
      <point x="700.5471698113208" y="1.8867924528301856"/>
      <point x="721.4905660377358" y="16.320754716981128" type="curve" smooth="yes"/>
      <point x="727.7924528301887" y="20.56603773584905"/>
      <point x="730.0943396226414" y="26.264150943396217"/>
      <point x="732.0943396226414" y="32.415094339622634" type="curve" smooth="yes"/>
      <point x="739.3396226415094" y="63.245283018867916"/>
      <point x="748.2830188679245" y="96.01886792452828"/>
      <point x="756.377358490566" y="131.09433962264148" type="curve"/>
      <point x="737.5849056603774" y="131.09433962264148" type="line"/>
      <point x="694.867924528302" y="117.50943396226413"/>
      <point x="647.0943396226414" y="110.71698113207545"/>
      <point x="607.7735849056603" y="110.71698113207545" type="curve" smooth="yes"/>
      <point x="564.622641509434" y="110.71698113207545"/>
      <point x="539.4905660377358" y="123.2641509433962"/>
      <point x="519.5471698113208" y="160.60377358490564" type="curve" smooth="yes"/>
      <point x="498.2641509433962" y="200.77358490566036"/>
      <point x="446.47169811320754" y="308.6792452830189"/>
    </contour>
    <contour>
      <point x="218.9622641509434" y="-9.0" type="curve" smooth="yes"/>
      <point x="297.6037735849057" y="-9.0"/>
      <point x="349.811320754717" y="13.150943396226415"/>
      <point x="393.7169811320755" y="75.73584905660377" type="curve"/>
      <point x="444.60377358490564" y="75.73584905660377" type="line"/>
      <point x="394.22641509433964" y="159.8490566037736" type="line"/>
      <point x="355.6037735849057" y="118.98113207547169"/>
      <point x="317.22641509433964" y="106.47169811320754"/>
      <point x="288.0" y="106.47169811320754" type="curve" smooth="yes"/>
      <point x="235.90566037735852" y="106.47169811320754"/>
      <point x="215.49056603773582" y="128.73584905660377"/>
      <point x="230.09433962264146" y="188.86792452830187" type="curve" smooth="yes"/>
      <point x="237.69811320754712" y="220.64150943396226" type="line" smooth="yes"/>
      <point x="251.15094339622638" y="274.5660377358491"/>
      <point x="269.9433962264151" y="295.7547169811321"/>
      <point x="320.6603773584906" y="302.20754716981133" type="curve"/>
      <point x="269.66037735849056" y="402.8679245283019" type="line"/>
      <point x="257.41509433962267" y="355.52830188679246" type="line"/>
      <point x="174.35849056603774" y="340.47169811320754"/>
      <point x="112.11320754716981" y="290.1698113207547"/>
      <point x="96.75471698113208" y="196.62264150943395" type="curve" smooth="yes"/>
      <point x="91.54716981132076" y="167.30188679245282" type="line" smooth="yes"/>
      <point x="71.33962264150944" y="46.86792452830189"/>
      <point x="114.39622641509436" y="-9.0"/>
    </contour>
    <contour>
      <point x="485.1698113207547" y="198.50943396226413" type="line"/>
      <point x="529.9622641509434" y="267.566037735849"/>
      <point x="571.7924528301887" y="285.45283018867923"/>
      <point x="640.2075471698114" y="285.45283018867923" type="curve" smooth="yes"/>
      <point x="704.9433962264152" y="285.45283018867923"/>
      <point x="761.0" y="282.2830188679245"/>
      <point x="832.9811320754718" y="276.6981132075472" type="curve"/>
      <point x="771.7547169811321" y="418.37735849056605" type="line"/>
      <point x="757.7547169811321" y="358.4339622641509" type="line"/>
      <point x="712.811320754717" y="385.9811320754717"/>
      <point x="679.2452830188679" y="399.6792452830189"/>
      <point x="639.6981132075472" y="399.6792452830189" type="curve" smooth="yes"/>
      <point x="621.811320754717" y="399.6792452830189" type="line" smooth="yes"/>
      <point x="559.1886792452831" y="399.6792452830189"/>
      <point x="507.0754716981133" y="358.7169811320755"/>
      <point x="480.96226415094344" y="272.79245283018867" type="curve"/>
      <point x="453.20754716981133" y="272.79245283018867" type="line"/>
    </contour>
    <contour>
      <point x="1418.5471698113208" y="66.64150943396226" type="curve" smooth="yes"/>
      <point x="1446.8867924528302" y="13.30188679245283"/>
      <point x="1468.8867924528302" y="-1.5094339622641524"/>
      <point x="1516.9811320754716" y="-1.5094339622641524" type="curve" smooth="yes"/>
      <point x="1537.0754716981132" y="-1.5094339622641524"/>
      <point x="1566.4150943396226" y="-1.5094339622641524"/>
      <point x="1578.0188679245284" y="-1.5094339622641524" type="curve" smooth="yes"/>
      <point x="1586.0188679245284" y="-1.5094339622641524"/>
      <point x="1590.0188679245284" y="2.4905660377358476"/>
      <point x="1592.0188679245284" y="9.490566037735848" type="curve" smooth="yes"/>
      <point x="1601.8113207547171" y="47.96226415094339"/>
      <point x="1611.6037735849059" y="85.83018867924525"/>
      <point x="1620.5471698113208" y="124.3018867924528" type="curve"/>
      <point x="1600.9056603773586" y="124.3018867924528" type="line"/>
      <point x="1590.4528301886792" y="124.3018867924528"/>
      <point x="1579.7924528301887" y="124.3018867924528"/>
      <point x="1569.3396226415095" y="124.3018867924528" type="curve" smooth="yes"/>
      <point x="1547.433962264151" y="124.3018867924528"/>
      <point x="1536.5283018867924" y="128.96226415094338"/>
      <point x="1522.8301886792453" y="154.66037735849056" type="curve" smooth="yes"/>
      <point x="1501.5471698113208" y="194.83018867924525"/>
      <point x="1444.6603773584905" y="309.52830188679246"/>
      <point x="1378.9622641509434" y="443.9433962264151" type="curve" smooth="yes"/>
      <point x="1362.5471698113208" y="478.2830188679245"/>
      <point x="1360.2075471698113" y="502.3396226415094"/>
      <point x="1368.0566037735848" y="529.7924528301887" type="curve" smooth="yes"/>
      <point x="1373.3584905660377" y="548.0"/>
      <point x="1378.9622641509434" y="561.2075471698114"/>
      <point x="1391.6792452830189" y="571.867924528302" type="curve"/>
      <point x="1407.3962264150941" y="584.377358490566"/>
      <point x="1434.4150943396228" y="591.0754716981132"/>
      <point x="1468.0754716981132" y="591.0754716981132" type="curve" smooth="yes"/>
      <point x="1521.9811320754718" y="591.0754716981132"/>
      <point x="1565.5849056603774" y="584.1698113207548"/>
      <point x="1609.9245283018868" y="570.0188679245283" type="curve"/>
      <point x="1628.7169811320755" y="570.0188679245283" type="line"/>
      <point x="1637.811320754717" y="604.2452830188679"/>
      <point x="1646.9056603773583" y="634.7735849056604"/>
      <point x="1655.0" y="666.1509433962265" type="curve" smooth="yes"/>
      <point x="1656.8490566037735" y="673.6981132075472"/>
      <point x="1655.1509433962265" y="681.0943396226414"/>
      <point x="1649.3018867924527" y="684.0943396226415" type="curve" smooth="yes"/>
      <point x="1625.811320754717" y="694.7924528301886"/>
      <point x="1566.4150943396226" y="708.8490566037735"/>
      <point x="1480.867924528302" y="708.8490566037735" type="curve" smooth="yes"/>
      <point x="1332.7924528301885" y="708.8490566037735"/>
      <point x="1266.2830188679245" y="653.8490566037736"/>
      <point x="1245.188679245283" y="568.6037735849058" type="curve" smooth="yes"/>
      <point x="1240.7924528301887" y="550.867924528302" type="line" smooth="yes"/>
      <point x="1225.6981132075473" y="488.6792452830189"/>
      <point x="1228.6037735849056" y="440.188679245283"/>
      <point x="1273.943396226415" y="349.39622641509436" type="curve" smooth="yes"/>
      <point x="1325.8867924528302" y="244.8490566037736"/>
      <point x="1394.2075471698113" y="112.52830188679246"/>
    </contour>
    <contour>
      <point x="985.0377358490566" y="198.50943396226413" type="line"/>
      <point x="1029.8301886792453" y="267.566037735849"/>
      <point x="1071.6603773584907" y="285.45283018867923"/>
      <point x="1140.0754716981132" y="285.45283018867923" type="curve" smooth="yes"/>
      <point x="1204.811320754717" y="285.45283018867923"/>
      <point x="1260.8679245283017" y="282.2830188679245"/>
      <point x="1332.8490566037735" y="276.6981132075472" type="curve"/>
      <point x="1271.622641509434" y="418.37735849056605" type="line"/>
      <point x="1257.622641509434" y="358.4339622641509" type="line"/>
      <point x="1212.6792452830189" y="385.9811320754717"/>
      <point x="1179.1132075471698" y="399.6792452830189"/>
      <point x="1139.566037735849" y="399.6792452830189" type="curve" smooth="yes"/>
      <point x="1121.6792452830189" y="399.6792452830189" type="line" smooth="yes"/>
      <point x="1059.056603773585" y="399.6792452830189"/>
      <point x="1006.9433962264152" y="358.7169811320755"/>
      <point x="980.8301886792452" y="272.79245283018867" type="curve"/>
      <point x="953.0754716981132" y="272.79245283018867" type="line"/>
    </contour>
    <contour>
      <point x="1678.377358490566" y="442.7358490566038" type="curve" smooth="yes"/>
      <point x="1639.9056603773586" y="442.7358490566038"/>
      <point x="1599.735849056604" y="442.7358490566038"/>
      <point x="1561.2641509433963" y="442.7358490566038" type="curve"/>
      <point x="1552.2641509433963" y="405.7358490566038"/>
      <point x="1542.867924528302" y="369.8490566037736"/>
      <point x="1533.4150943396228" y="331.33962264150944" type="curve" smooth="yes"/>
      <point x="1522.6037735849056" y="289.2452830188679"/>
      <point x="1511.4150943396226" y="251.86792452830187"/>
      <point x="1469.698113207547" y="223.64150943396226" type="curve"/>
      <point x="1513.0754716981132" y="132.1320754716981" type="line"/>
      <point x="1526.4716981132076" y="186.4150943396226" type="line"/>
      <point x="1622.5471698113208" y="224.18867924528303"/>
      <point x="1648.7169811320755" y="284.0377358490566"/>
      <point x="1671.3207547169811" y="372.20754716981133" type="curve" smooth="yes"/>
      <point x="1686.377358490566" y="431.7358490566038" type="line" smooth="yes"/>
      <point x="1688.377358490566" y="438.7358490566038"/>
      <point x="1686.2264150943395" y="442.7358490566038"/>
    </contour>
    <contour>
      <point x="920.433962264151" y="62.98113207547169" type="curve" smooth="yes"/>
      <point x="950.8679245283018" y="4.452830188679243"/>
      <point x="990.6981132075472" y="-10.0"/>
      <point x="1069.8679245283017" y="-10.0" type="curve" smooth="yes"/>
      <point x="1132.4150943396226" y="-10.0"/>
      <point x="1199.7169811320755" y="1.8867924528301856"/>
      <point x="1220.6603773584907" y="16.320754716981128" type="curve" smooth="yes"/>
      <point x="1226.9622641509434" y="20.56603773584905"/>
      <point x="1229.2641509433963" y="26.264150943396217"/>
      <point x="1231.2641509433963" y="32.415094339622634" type="curve" smooth="yes"/>
      <point x="1238.5094339622642" y="63.245283018867916"/>
      <point x="1247.4528301886794" y="96.01886792452828"/>
      <point x="1255.5471698113208" y="131.09433962264148" type="curve"/>
      <point x="1236.754716981132" y="131.09433962264148" type="line"/>
      <point x="1194.0377358490566" y="117.50943396226413"/>
      <point x="1146.264150943396" y="110.71698113207545"/>
      <point x="1106.943396226415" y="110.71698113207545" type="curve" smooth="yes"/>
      <point x="1063.7924528301885" y="110.71698113207545"/>
      <point x="1038.6603773584905" y="123.2641509433962"/>
      <point x="1018.7169811320755" y="160.60377358490564" type="curve" smooth="yes"/>
      <point x="997.433962264151" y="200.77358490566036"/>
      <point x="944.7924528301887" y="309.52830188679246"/>
      <point x="879.0943396226414" y="443.9433962264151" type="curve" smooth="yes"/>
      <point x="862.6792452830189" y="478.2830188679245"/>
      <point x="860.3396226415094" y="502.3396226415094"/>
      <point x="868.1886792452831" y="529.7924528301887" type="curve" smooth="yes"/>
      <point x="873.4905660377359" y="548.0"/>
      <point x="879.0943396226415" y="561.2075471698114"/>
      <point x="891.8113207547169" y="571.867924528302" type="curve"/>
      <point x="907.5283018867925" y="584.377358490566"/>
      <point x="934.5471698113207" y="591.0754716981132"/>
      <point x="968.2075471698113" y="591.0754716981132" type="curve" smooth="yes"/>
      <point x="1022.1132075471697" y="591.0754716981132"/>
      <point x="1065.7169811320755" y="584.1698113207548"/>
      <point x="1110.056603773585" y="570.0188679245283" type="curve"/>
      <point x="1128.8490566037738" y="570.0188679245283" type="line"/>
      <point x="1137.9433962264152" y="604.2452830188679"/>
      <point x="1147.0377358490566" y="634.7735849056604"/>
      <point x="1155.1320754716983" y="666.1509433962265" type="curve" smooth="yes"/>
      <point x="1156.9811320754718" y="673.6981132075472"/>
      <point x="1155.2830188679245" y="681.0943396226414"/>
      <point x="1149.433962264151" y="684.0943396226415" type="curve" smooth="yes"/>
      <point x="1125.9433962264152" y="694.7924528301886"/>
      <point x="1066.5471698113206" y="708.8490566037735"/>
      <point x="981.0" y="708.8490566037735" type="curve" smooth="yes"/>
      <point x="832.9245283018868" y="708.8490566037735"/>
      <point x="766.4150943396226" y="653.8490566037736"/>
      <point x="745.3207547169811" y="568.6037735849058" type="curve" smooth="yes"/>
      <point x="740.9245283018868" y="550.867924528302" type="line" smooth="yes"/>
      <point x="725.8301886792452" y="488.6792452830189"/>
      <point x="728.7358490566038" y="440.188679245283"/>
      <point x="774.0754716981132" y="349.39622641509436" type="curve" smooth="yes"/>
      <point x="826.0188679245283" y="244.8490566037736"/>
      <point x="896.2452830188679" y="108.86792452830188"/>
    </contour>
  </outline>
</glyph>
<glyph name="z.italic" format="2">
  <advance width="600.0"/>
  <outline>
    <contour>
      <point x="139.50943396226415" y="537.8867924528302" type="line"/>
      <point x="129.71698113207546" y="499.7169811320755"/>
      <point x="120.77358490566039" y="462.24528301886795"/>
      <point x="110.98113207547169" y="424.07547169811323" type="curve" smooth="yes"/>
      <point x="109.13207547169812" y="418.07547169811323"/>
      <point x="113.13207547169812" y="413.07547169811323"/>
      <point x="119.13207547169812" y="413.07547169811323" type="curve" smooth="yes"/>
      <point x="415.0188679245283" y="413.07547169811323" type="line"/>
      <point x="414.566037735849" y="392.5849056603774" type="line"/>
      <point x="377.9245283018869" y="378.07547169811323"/>
      <point x="350.4716981132076" y="365.66037735849056"/>
      <point x="319.7735849056604" y="347.75471698113205" type="curve" smooth="yes"/>
      <point x="256.6981132075472" y="308.8301886792453"/>
      <point x="184.58490566037736" y="255.62264150943398"/>
      <point x="42.64150943396226" y="151.41509433962264" type="curve"/>
      <point x="7.113207547169813" y="11.0" type="line" smooth="yes"/>
      <point x="6.113207547169813" y="5.0"/>
      <point x="9.113207547169806" y="0.0"/>
      <point x="15.113207547169806" y="0.0" type="curve" smooth="yes"/>
      <point x="461.09433962264154" y="0.0" type="line"/>
      <point x="470.8867924528302" y="39.018867924528294"/>
      <point x="479.8301886792453" y="74.79245283018868"/>
      <point x="489.62264150943395" y="113.81132075471696" type="curve" smooth="yes"/>
      <point x="491.47169811320754" y="119.81132075471696"/>
      <point x="487.47169811320754" y="124.81132075471696"/>
      <point x="481.47169811320754" y="124.81132075471696" type="curve"/>
      <point x="185.2264150943396" y="124.81132075471696" type="line"/>
      <point x="185.67924528301884" y="145.1509433962264" type="line"/>
      <point x="225.41509433962264" y="160.75471698113205"/>
      <point x="253.86792452830184" y="172.56603773584905"/>
      <point x="288.811320754717" y="193.16981132075472" type="curve" smooth="yes"/>
      <point x="350.4905660377358" y="232.54716981132074"/>
      <point x="424.5094339622642" y="287.35849056603774"/>
      <point x="557.9622641509435" y="386.47169811320754" type="curve"/>
      <point x="593.4905660377359" y="526.8867924528302" type="line" smooth="yes"/>
      <point x="594.4905660377359" y="532.8867924528302"/>
      <point x="591.4905660377359" y="537.8867924528302"/>
      <point x="585.4905660377359" y="537.8867924528302" type="curve"/>
    </contour>
  </outline>
</glyph>
